<svg width="30" height="30" viewBox="0 0 30 30" fill="none" xmlns="http://www.w3.org/2000/svg">
<path d="M28.6364 16.3635C28.2747 16.3635 27.9279 16.5072 27.6721 16.7629C27.4164 17.0186 27.2727 17.3655 27.2727 17.7272V23.4722C27.2716 24.4798 26.8709 25.4459 26.1584 26.1584C25.4459 26.8709 24.4799 27.2716 23.4723 27.2727H6.52773C5.52012 27.2716 4.55408 26.8709 3.8416 26.1584C3.12911 25.4459 2.72836 24.4798 2.72727 23.4722V17.7272C2.72727 17.3655 2.5836 17.0186 2.32787 16.7629C2.07214 16.5072 1.7253 16.3635 1.36364 16.3635C1.00198 16.3635 0.655131 16.5072 0.3994 16.7629C0.143668 17.0186 0 17.3655 0 17.7272V23.4722C0.00180489 25.2029 0.690125 26.8623 1.91392 28.0861C3.13772 29.3099 4.79702 29.9982 6.52773 30H23.4723C25.203 29.9982 26.8623 29.3099 28.0861 28.0861C29.3099 26.8623 29.9982 25.2029 30 23.4722V17.7272C30 17.3655 29.8563 17.0186 29.6006 16.7629C29.3449 16.5072 28.998 16.3635 28.6364 16.3635Z" fill="#013066"/>
<path d="M7.78227 10.5094L13.6364 4.65521V21.8181C13.6364 22.1798 13.78 22.5266 14.0358 22.7823C14.2915 23.0381 14.6383 23.1818 15 23.1818C15.3617 23.1818 15.7085 23.0381 15.9642 22.7823C16.22 22.5266 16.3636 22.1798 16.3636 21.8181V4.65521L22.2177 10.5094C22.4749 10.7578 22.8194 10.8952 23.1769 10.8921C23.5345 10.889 23.8765 10.7456 24.1293 10.4927C24.3821 10.2399 24.5255 9.89789 24.5286 9.54035C24.5318 9.1828 24.3943 8.83834 24.1459 8.58116L15.9641 0.399258C15.7084 0.143613 15.3616 0 15 0C14.6384 0 14.2916 0.143613 14.0359 0.399258L5.85409 8.58116C5.60569 8.83834 5.46825 9.1828 5.47135 9.54035C5.47446 9.89789 5.61787 10.2399 5.8707 10.4927C6.12353 10.7456 6.46555 10.889 6.82309 10.8921C7.18063 10.8952 7.52509 10.7578 7.78227 10.5094Z" fill="#013066"/>
</svg>
