<svg width="18" height="20" viewBox="0 0 18 20" fill="none" xmlns="http://www.w3.org/2000/svg">
<path fill-rule="evenodd" clip-rule="evenodd" d="M15.2853 2.84375H13.4511V0.939453C13.4511 0.696765 13.2458 0.5 12.9925 0.5H12.6868C12.4336 0.5 12.2283 0.696765 12.2283 0.939453V2.84375H4.8913V0.939453C4.8913 0.696765 4.68598 0.5 4.43274 0.5H4.12704C3.8738 0.5 3.66848 0.696765 3.66848 0.939453V2.84375H1.83424C0.821204 2.84375 0 3.63074 0 4.60156V17.4922C0 18.463 0.821204 19.25 1.83424 19.25H15.2853C16.2984 19.25 17.1196 18.463 17.1196 17.4922V4.60156C17.1196 3.63074 16.2984 2.84375 15.2853 2.84375ZM1.83427 4.01562H15.2854C15.6225 4.01562 15.8968 4.27849 15.8968 4.60156V6.35938H1.22286V4.60156C1.22286 4.27849 1.49715 4.01562 1.83427 4.01562ZM1.83427 18.0781H15.2854C15.6225 18.0781 15.8968 17.8153 15.8968 17.4922V7.53125H1.22286V17.4922C1.22286 17.8153 1.49715 18.0781 1.83427 18.0781Z" fill="#5E5E5E"/>
</svg>
