<svg width="62" height="3" viewBox="0 0 62 3" fill="none" xmlns="http://www.w3.org/2000/svg">
<path d="M0.522461 1.24219C0.522461 0.992188 0.595378 0.783854 0.741211 0.617188C0.892253 0.450521 1.11621 0.367188 1.41309 0.367188C1.70996 0.367188 1.93392 0.450521 2.08496 0.617188C2.24121 0.783854 2.31934 0.992188 2.31934 1.24219C2.31934 1.48177 2.24121 1.68229 2.08496 1.84375C1.93392 2.00521 1.70996 2.08594 1.41309 2.08594C1.11621 2.08594 0.892253 2.00521 0.741211 1.84375C0.595378 1.68229 0.522461 1.48177 0.522461 1.24219ZM4.74121 1.24219C4.74121 0.992188 4.81413 0.783854 4.95996 0.617188C5.111 0.450521 5.33496 0.367188 5.63184 0.367188C5.92871 0.367188 6.15267 0.450521 6.30371 0.617188C6.45996 0.783854 6.53809 0.992188 6.53809 1.24219C6.53809 1.48177 6.45996 1.68229 6.30371 1.84375C6.15267 2.00521 5.92871 2.08594 5.63184 2.08594C5.33496 2.08594 5.111 2.00521 4.95996 1.84375C4.81413 1.68229 4.74121 1.48177 4.74121 1.24219ZM8.95996 1.24219C8.95996 0.992188 9.03288 0.783854 9.17871 0.617188C9.32975 0.450521 9.55371 0.367188 9.85059 0.367188C10.1475 0.367188 10.3714 0.450521 10.5225 0.617188C10.6787 0.783854 10.7568 0.992188 10.7568 1.24219C10.7568 1.48177 10.6787 1.68229 10.5225 1.84375C10.3714 2.00521 10.1475 2.08594 9.85059 2.08594C9.55371 2.08594 9.32975 2.00521 9.17871 1.84375C9.03288 1.68229 8.95996 1.48177 8.95996 1.24219ZM13.1787 1.24219C13.1787 0.992188 13.2516 0.783854 13.3975 0.617188C13.5485 0.450521 13.7725 0.367188 14.0693 0.367188C14.3662 0.367188 14.5902 0.450521 14.7412 0.617188C14.8975 0.783854 14.9756 0.992188 14.9756 1.24219C14.9756 1.48177 14.8975 1.68229 14.7412 1.84375C14.5902 2.00521 14.3662 2.08594 14.0693 2.08594C13.7725 2.08594 13.5485 2.00521 13.3975 1.84375C13.2516 1.68229 13.1787 1.48177 13.1787 1.24219ZM17.3975 1.24219C17.3975 0.992188 17.4704 0.783854 17.6162 0.617188C17.7673 0.450521 17.9912 0.367188 18.2881 0.367188C18.585 0.367188 18.8089 0.450521 18.96 0.617188C19.1162 0.783854 19.1943 0.992188 19.1943 1.24219C19.1943 1.48177 19.1162 1.68229 18.96 1.84375C18.8089 2.00521 18.585 2.08594 18.2881 2.08594C17.9912 2.08594 17.7673 2.00521 17.6162 1.84375C17.4704 1.68229 17.3975 1.48177 17.3975 1.24219ZM21.6162 1.24219C21.6162 0.992188 21.6891 0.783854 21.835 0.617188C21.986 0.450521 22.21 0.367188 22.5068 0.367188C22.8037 0.367188 23.0277 0.450521 23.1787 0.617188C23.335 0.783854 23.4131 0.992188 23.4131 1.24219C23.4131 1.48177 23.335 1.68229 23.1787 1.84375C23.0277 2.00521 22.8037 2.08594 22.5068 2.08594C22.21 2.08594 21.986 2.00521 21.835 1.84375C21.6891 1.68229 21.6162 1.48177 21.6162 1.24219ZM25.835 1.24219C25.835 0.992188 25.9079 0.783854 26.0537 0.617188C26.2048 0.450521 26.4287 0.367188 26.7256 0.367188C27.0225 0.367188 27.2464 0.450521 27.3975 0.617188C27.5537 0.783854 27.6318 0.992188 27.6318 1.24219C27.6318 1.48177 27.5537 1.68229 27.3975 1.84375C27.2464 2.00521 27.0225 2.08594 26.7256 2.08594C26.4287 2.08594 26.2048 2.00521 26.0537 1.84375C25.9079 1.68229 25.835 1.48177 25.835 1.24219ZM30.0537 1.24219C30.0537 0.992188 30.1266 0.783854 30.2725 0.617188C30.4235 0.450521 30.6475 0.367188 30.9443 0.367188C31.2412 0.367188 31.4652 0.450521 31.6162 0.617188C31.7725 0.783854 31.8506 0.992188 31.8506 1.24219C31.8506 1.48177 31.7725 1.68229 31.6162 1.84375C31.4652 2.00521 31.2412 2.08594 30.9443 2.08594C30.6475 2.08594 30.4235 2.00521 30.2725 1.84375C30.1266 1.68229 30.0537 1.48177 30.0537 1.24219ZM34.2725 1.24219C34.2725 0.992188 34.3454 0.783854 34.4912 0.617188C34.6423 0.450521 34.8662 0.367188 35.1631 0.367188C35.46 0.367188 35.6839 0.450521 35.835 0.617188C35.9912 0.783854 36.0693 0.992188 36.0693 1.24219C36.0693 1.48177 35.9912 1.68229 35.835 1.84375C35.6839 2.00521 35.46 2.08594 35.1631 2.08594C34.8662 2.08594 34.6423 2.00521 34.4912 1.84375C34.3454 1.68229 34.2725 1.48177 34.2725 1.24219ZM38.4912 1.24219C38.4912 0.992188 38.5641 0.783854 38.71 0.617188C38.861 0.450521 39.085 0.367188 39.3818 0.367188C39.6787 0.367188 39.9027 0.450521 40.0537 0.617188C40.21 0.783854 40.2881 0.992188 40.2881 1.24219C40.2881 1.48177 40.21 1.68229 40.0537 1.84375C39.9027 2.00521 39.6787 2.08594 39.3818 2.08594C39.085 2.08594 38.861 2.00521 38.71 1.84375C38.5641 1.68229 38.4912 1.48177 38.4912 1.24219ZM42.71 1.24219C42.71 0.992188 42.7829 0.783854 42.9287 0.617188C43.0798 0.450521 43.3037 0.367188 43.6006 0.367188C43.8975 0.367188 44.1214 0.450521 44.2725 0.617188C44.4287 0.783854 44.5068 0.992188 44.5068 1.24219C44.5068 1.48177 44.4287 1.68229 44.2725 1.84375C44.1214 2.00521 43.8975 2.08594 43.6006 2.08594C43.3037 2.08594 43.0798 2.00521 42.9287 1.84375C42.7829 1.68229 42.71 1.48177 42.71 1.24219ZM46.9287 1.24219C46.9287 0.992188 47.0016 0.783854 47.1475 0.617188C47.2985 0.450521 47.5225 0.367188 47.8193 0.367188C48.1162 0.367188 48.3402 0.450521 48.4912 0.617188C48.6475 0.783854 48.7256 0.992188 48.7256 1.24219C48.7256 1.48177 48.6475 1.68229 48.4912 1.84375C48.3402 2.00521 48.1162 2.08594 47.8193 2.08594C47.5225 2.08594 47.2985 2.00521 47.1475 1.84375C47.0016 1.68229 46.9287 1.48177 46.9287 1.24219ZM51.1475 1.24219C51.1475 0.992188 51.2204 0.783854 51.3662 0.617188C51.5173 0.450521 51.7412 0.367188 52.0381 0.367188C52.335 0.367188 52.5589 0.450521 52.71 0.617188C52.8662 0.783854 52.9443 0.992188 52.9443 1.24219C52.9443 1.48177 52.8662 1.68229 52.71 1.84375C52.5589 2.00521 52.335 2.08594 52.0381 2.08594C51.7412 2.08594 51.5173 2.00521 51.3662 1.84375C51.2204 1.68229 51.1475 1.48177 51.1475 1.24219ZM55.3662 1.24219C55.3662 0.992188 55.4391 0.783854 55.585 0.617188C55.736 0.450521 55.96 0.367188 56.2568 0.367188C56.5537 0.367188 56.7777 0.450521 56.9287 0.617188C57.085 0.783854 57.1631 0.992188 57.1631 1.24219C57.1631 1.48177 57.085 1.68229 56.9287 1.84375C56.7777 2.00521 56.5537 2.08594 56.2568 2.08594C55.96 2.08594 55.736 2.00521 55.585 1.84375C55.4391 1.68229 55.3662 1.48177 55.3662 1.24219ZM59.585 1.24219C59.585 0.992188 59.6579 0.783854 59.8037 0.617188C59.9548 0.450521 60.1787 0.367188 60.4756 0.367188C60.7725 0.367188 60.9964 0.450521 61.1475 0.617188C61.3037 0.783854 61.3818 0.992188 61.3818 1.24219C61.3818 1.48177 61.3037 1.68229 61.1475 1.84375C60.9964 2.00521 60.7725 2.08594 60.4756 2.08594C60.1787 2.08594 59.9548 2.00521 59.8037 1.84375C59.6579 1.68229 59.585 1.48177 59.585 1.24219Z" fill="#ABC1DB"/>
</svg>
