<svg width="35" height="35" viewBox="0 0 35 35" fill="none" xmlns="http://www.w3.org/2000/svg">
<path d="M3.08236 7.58414C1.95384 9.22212 1.09621 11.0613 0.576172 13.0381H8.53659L3.08236 7.58414Z" fill="#29337A"/>
<path d="M12.5994 0.7005C10.583 1.2877 8.71566 2.22469 7.07129 3.44683L12.5994 8.9748V0.7005Z" fill="#29337A"/>
<path d="M7.48242 31.8451C9.02479 32.9244 10.748 33.7599 12.5993 34.299V26.729L7.48242 31.8451Z" fill="#29337A"/>
<path d="M0.777344 22.6672C1.35597 24.5415 2.24265 26.2803 3.37582 27.8271L8.53575 22.6672H0.777344Z" fill="#29337A"/>
<path d="M3.37088 7.17795C3.27305 7.31169 3.17662 7.44735 3.08212 7.58441L8.53635 13.0383H0.575933C0.446922 13.5293 0.341629 14.0298 0.254883 14.5371H10.7306L3.37088 7.17795Z" fill="white"/>
<path d="M7.07617 31.5563C7.20932 31.6556 7.34616 31.75 7.48205 31.8451L12.5989 26.7288V34.2988C13.0905 34.4425 13.5898 34.5666 14.0977 34.6664V24.5351L7.07617 31.5563Z" fill="white"/>
<path d="M0.388672 21.1685C0.497289 21.6763 0.625488 22.1765 0.777183 22.6672H8.53566L3.37573 27.8272C3.93692 28.5939 4.55922 29.3134 5.23538 29.9788L14.0457 21.1685H0.388672Z" fill="white"/>
<path d="M12.5991 0.700443V8.97474L7.07104 3.44707C6.30895 4.0138 5.59658 4.64297 4.93652 5.32408L14.0976 14.4851V0.332916C13.5899 0.433258 13.0907 0.557614 12.5991 0.700443Z" fill="white"/>
<path d="M12.5994 22.6143L12.5469 22.6671H12.5994V22.6143Z" fill="#D32030"/>
<path d="M14.0459 21.1684H14.0984V21.1156L14.0459 21.1684Z" fill="#D32030"/>
<path d="M20.78 14.5368H20.7295V14.5876L20.78 14.5368Z" fill="#D32030"/>
<path d="M12.6513 13.0383L12.5996 12.9864V13.0383H12.6513Z" fill="#D32030"/>
<path d="M14.0977 14.4851V14.5368H14.1494L14.0977 14.4851Z" fill="#D32030"/>
<path d="M22.2285 30.425V34.3479C24.1039 33.8229 25.8524 32.9953 27.4164 31.9171L23.1658 27.6666C22.8261 28.86 22.7019 29.4769 22.2285 30.425Z" fill="#252F6C"/>
<path d="M23.1872 8.01487L27.8274 3.37468C26.1604 2.15387 24.2693 1.22353 22.2275 0.65155V4.68134C22.7733 5.77416 22.8192 6.60454 23.1872 8.01487Z" fill="#252F6C"/>
<path d="M31.5529 27.9291C32.7215 26.3571 33.6322 24.5826 34.2238 22.6672H26.291L31.5529 27.9291Z" fill="#252F6C"/>
<path d="M34.4242 13.0384C33.893 11.0198 33.0097 9.14615 31.8456 7.48245L26.2891 13.0384H34.4242Z" fill="#252F6C"/>
<path d="M24.209 21.4649L25.4115 22.6674L31.1678 28.4236C31.2985 28.26 31.4283 28.097 31.5532 27.9293L26.2913 22.6674H34.2241C34.3753 22.1769 34.5037 21.6766 34.612 21.1686H24.3214C24.3046 21.3811 24.2292 21.2538 24.209 21.4649Z" fill="#E7E7E7"/>
<path d="M23.005 8.89238L28.2221 3.67467C28.0914 3.57329 27.9604 3.47243 27.8269 3.3746L23.1867 8.01479C23.2348 8.19826 22.9602 8.70448 23.005 8.89238Z" fill="#E7E7E7"/>
<path d="M22.2273 4.35888V0.651247C21.7363 0.513665 21.2364 0.397067 20.7285 0.301971V2.11049C21.2862 2.71506 21.786 3.47442 22.2273 4.35888Z" fill="#E7E7E7"/>
<path d="M24.0907 14.5368H34.7452C34.6587 14.0295 34.5532 13.5293 34.4242 13.038H26.2891L31.8456 7.48213C31.2993 6.70178 30.6923 5.96791 30.0291 5.2879L23.7705 11.5459C23.939 12.6811 24.0145 13.3403 24.0907 14.5368Z" fill="#E7E7E7"/>
<path d="M22.9121 27.4131L27.4158 31.9174C28.1649 31.4015 28.8703 30.8273 29.5285 30.2039L23.6046 24.2797C23.4155 25.3753 23.1912 26.4336 22.9121 27.4131Z" fill="#E7E7E7"/>
<path d="M20.7285 32.6814V34.6971C21.2364 34.6026 21.736 34.4854 22.2273 34.3478V30.4249C21.7857 31.3098 21.2859 32.0776 20.7285 32.6814Z" fill="#E7E7E7"/>
<path d="M23.7703 11.5459L30.0283 5.2879C29.4649 4.70927 28.8609 4.17076 28.222 3.67474L23.3047 8.59291C23.5233 9.5064 23.6225 10.552 23.7703 11.5459Z" fill="#D71F28"/>
<path d="M16.627 0.0215757C16.9185 0.00746284 17.2092 0 17.5001 0C17.2075 0 16.9163 0.00746284 16.627 0.0215757Z" fill="#D32030"/>
<path d="M17.4996 35C17.2086 35 16.9179 34.992 16.627 34.9779C16.9163 34.9925 17.207 35 17.4996 35Z" fill="#D32030"/>
<path d="M17.5 35C18.6041 35 19.6823 34.8931 20.7296 34.6971V32.6814C19.8103 33.6778 18.7349 35 17.5 35Z" fill="#D32030"/>
<path d="M34.7451 14.5368H24.229C24.3683 16.7316 24.3515 18.9886 24.1787 21.1684H34.6119C34.8645 19.9849 34.9998 18.7586 34.9998 17.5003C34.9998 16.4895 34.9098 15.5008 34.7451 14.5368Z" fill="#D71F28"/>
<path d="M24.2091 21.4649C24.1118 22.4989 23.773 23.3046 23.6045 24.2801L29.5284 30.204C30.1145 29.6486 30.6624 29.0545 31.1675 28.4237L25.4115 22.6672L24.2091 21.4649Z" fill="#D71F28"/>
<path d="M20.7296 2.24063V0.302282C19.6827 0.106918 18.6045 0 17.5 0C18.7349 0 19.8103 1.24452 20.7296 2.24063Z" fill="#D32030"/>
<path d="M22.2275 31.1819C22.7009 30.2336 23.1068 29.1419 23.4466 27.9487L22.2275 26.7296V31.1819Z" fill="#29337A"/>
<path d="M23.5983 7.60368C23.2297 6.19335 22.7733 4.91122 22.2275 3.81839V8.97389L23.5983 7.60368Z" fill="#29337A"/>
<path d="M24.5479 21.8043C24.5678 21.5932 24.5858 21.3813 24.6029 21.1685H23.9121L24.5479 21.8043Z" fill="white"/>
<path d="M22.2273 8.97397V3.81818C21.7857 2.93372 21.2862 2.17384 20.7285 1.56979V11.1685L23.7384 8.1586C23.6931 7.9707 23.6455 7.78664 23.598 7.60317L22.2273 8.97397Z" fill="white"/>
<path d="M20.7793 14.5369H24.6533C24.5773 13.3404 24.4563 12.1633 24.2879 11.0284L20.7793 14.5369Z" fill="white"/>
<path d="M20.7285 33.43C21.2862 32.8255 21.7857 32.0661 22.2273 31.1817V26.7294L23.4464 27.9485C23.726 26.9684 23.9606 25.9214 24.1502 24.8258L20.7286 21.4044L20.7285 33.43Z" fill="white"/>
<path d="M20.7293 33.43V21.4044L24.1507 24.826C24.319 23.8503 24.4514 22.8384 24.5483 21.8042L23.9125 21.1684H24.6033C24.776 18.9885 24.7928 16.7315 24.6536 14.5368H20.7797L24.2881 11.0284C24.1402 10.0342 23.9574 9.0726 23.7388 8.15881L20.7294 11.1687V1.57001C19.81 0.573605 18.7346 0 17.4997 0C17.2087 0 16.918 0.00746284 16.6266 0.0215757C15.7658 0.0646534 14.9217 0.170537 14.0977 0.33302V14.4852L4.93641 5.32411C4.37352 5.90496 3.84994 6.52386 3.37077 7.17793L9.23117 13.0383L10.7305 14.5371H0.254771C0.0906625 15.5008 0 16.4895 0 17.5003C0 18.7589 0.135957 19.9849 0.38792 21.1684H14.0452L5.23485 29.9788C5.81178 30.5455 6.42603 31.0733 7.07625 31.5562L14.0975 24.535V34.6665C14.9214 34.8289 15.7661 34.9348 16.6268 34.9779C16.9178 34.992 17.2085 35 17.4995 35C18.7346 35 19.81 34.4264 20.7293 33.43Z" fill="#E51D35"/>
</svg>
