<svg width="135" height="90" viewBox="0 0 135 90" fill="none" xmlns="http://www.w3.org/2000/svg">
<path d="M4.58203 88.5916H2.2374L1.82794 89.9035H0L2.60298 82.8809H4.21157L6.83405 89.9035H4.99636L4.58203 88.5916ZM2.64685 87.2845H4.17257L3.40728 84.8488L2.64685 87.2845Z" fill="white"/>
<path d="M11.7571 86.9276H9.06642V88.6013H12.2445V89.9035H7.35547V82.8809H12.2543V84.188H9.06642V85.6688H11.7571V86.9276Z" fill="white"/>
<path d="M16.6027 88.0369C16.6027 87.7894 16.5134 87.5964 16.3347 87.4582C16.1592 87.3199 15.8488 87.1768 15.4036 87.0289C14.9584 86.881 14.5945 86.7379 14.3117 86.5996C13.3921 86.1527 12.9322 85.5385 12.9322 84.7572C12.9322 84.3681 13.046 84.0257 13.2735 83.7298C13.5042 83.4308 13.8292 83.1993 14.2484 83.0353C14.6676 82.8681 15.1388 82.7845 15.662 82.7845C16.1722 82.7845 16.6287 82.8745 17.0317 83.0546C17.4379 83.2346 17.7531 83.4919 17.9774 83.8263C18.2016 84.1575 18.3137 84.5369 18.3137 84.9646H16.6076C16.6076 84.6784 16.5183 84.4565 16.3395 84.299C16.164 84.1414 15.9252 84.0626 15.623 84.0626C15.3175 84.0626 15.0754 84.1301 14.8967 84.2652C14.7212 84.397 14.6335 84.5658 14.6335 84.7716C14.6335 84.9517 14.7309 85.1157 14.9259 85.2636C15.1209 85.4083 15.4637 85.5594 15.9544 85.717C16.4451 85.8713 16.8481 86.0385 17.1633 86.2186C17.9302 86.6559 18.3137 87.2588 18.3137 88.0273C18.3137 88.6415 18.0797 89.1238 17.6118 89.4743C17.1438 89.8248 16.502 90 15.6863 90C15.1112 90 14.5896 89.8987 14.1216 89.6961C13.6569 89.4903 13.306 89.2106 13.0687 88.8569C12.8348 88.5 12.7178 88.09 12.7178 87.627H14.4336C14.4336 88.0032 14.5311 88.2813 14.7261 88.4614C14.9243 88.6382 15.2444 88.7267 15.6863 88.7267C15.9691 88.7267 16.1917 88.6672 16.3541 88.5482C16.5199 88.426 16.6027 88.2556 16.6027 88.0369Z" fill="white"/>
<path d="M24.7624 84.188H22.6322V89.9035H20.9213V84.188H18.8301V82.8809H24.7624V84.188Z" fill="white"/>
<path d="M31.421 89.9035H29.7198V86.971H27.1997V89.9035H25.4888V82.8809H27.1997V85.6688H29.7198V82.8809H31.421V89.9035Z" fill="white"/>
<path d="M36.9095 86.9276H34.2188V88.6013H37.397V89.9035H32.5078V82.8809H37.4067V84.188H34.2188V85.6688H36.9095V86.9276Z" fill="white"/>
<path d="M43.7634 84.188H41.6332V89.9035H39.9223V84.188H37.8311V82.8809H43.7634V84.188Z" fill="white"/>
<path d="M46.3124 89.9035H44.6064V82.8809H46.3124V89.9035Z" fill="white"/>
<path d="M53.2442 87.5257C53.2214 88.0145 53.0882 88.4469 52.8445 88.8231C52.6007 89.1961 52.2579 89.4855 51.8159 89.6913C51.3772 89.8971 50.8752 90 50.3097 90C49.3771 90 48.6426 89.6994 48.1064 89.0981C47.5703 88.4968 47.3022 87.6479 47.3022 86.5514V86.2041C47.3022 85.516 47.4224 84.9147 47.6629 84.4003C47.9066 83.8826 48.2559 83.4838 48.7109 83.2041C49.1658 82.9211 49.6923 82.7797 50.2902 82.7797C51.1514 82.7797 51.8436 83.0047 52.3668 83.4549C52.89 83.9019 53.1873 84.5192 53.2588 85.307H51.5527C51.5397 84.8794 51.4309 84.5723 51.2261 84.3858C51.0214 84.1993 50.7094 84.106 50.2902 84.106C49.8645 84.106 49.5525 84.2636 49.3543 84.5787C49.1561 84.8938 49.0521 85.397 49.0424 86.0884V86.5852C49.0424 87.3344 49.1366 87.8697 49.3251 88.1913C49.5168 88.5128 49.845 88.6736 50.3097 88.6736C50.7029 88.6736 51.0035 88.582 51.2115 88.3987C51.4195 88.2154 51.53 87.9244 51.543 87.5257H53.2442Z" fill="white"/>
<path d="M62.2814 87.5257C62.2586 88.0145 62.1254 88.4469 61.8817 88.8231C61.638 89.1961 61.2951 89.4855 60.8532 89.6913C60.4145 89.8971 59.9124 90 59.3469 90C58.4143 90 57.6799 89.6994 57.1437 89.0981C56.6075 88.4968 56.3394 87.6479 56.3394 86.5514V86.2041C56.3394 85.516 56.4596 84.9147 56.7001 84.4003C56.9438 83.8826 57.2932 83.4838 57.7481 83.2041C58.2031 82.9211 58.7295 82.7797 59.3274 82.7797C60.1886 82.7797 60.8808 83.0047 61.404 83.4549C61.9272 83.9019 62.2245 84.5192 62.296 85.307H60.5899C60.5769 84.8794 60.4681 84.5723 60.2634 84.3858C60.0586 84.1993 59.7467 84.106 59.3274 84.106C58.9017 84.106 58.5898 84.2636 58.3915 84.5787C58.1933 84.8938 58.0893 85.397 58.0796 86.0884V86.5852C58.0796 87.3344 58.1738 87.8697 58.3623 88.1913C58.554 88.5128 58.8822 88.6736 59.3469 88.6736C59.7402 88.6736 60.0407 88.582 60.2487 88.3987C60.4567 88.2154 60.5672 87.9244 60.5802 87.5257H62.2814Z" fill="white"/>
<path d="M69.1007 86.5369C69.1007 87.2218 68.9724 87.8279 68.7156 88.3553C68.4589 88.8826 68.0933 89.2894 67.6189 89.5756C67.1477 89.8585 66.6099 90 66.0054 90C65.401 90 64.8648 89.8633 64.3968 89.59C63.9289 89.3135 63.5633 88.9196 63.3001 88.4083C63.0401 87.8971 62.9036 87.3102 62.8906 86.6479V86.2524C62.8906 85.5643 63.0173 84.9581 63.2708 84.434C63.5275 83.9067 63.8931 83.4999 64.3676 83.2137C64.8453 82.9276 65.388 82.7845 65.9957 82.7845C66.5969 82.7845 67.133 82.926 67.6042 83.2089C68.0754 83.4919 68.441 83.8954 68.701 84.4195C68.9642 84.9404 69.0975 85.5385 69.1007 86.2138V86.5369ZM67.3605 86.2427C67.3605 85.545 67.2419 85.016 67.0047 84.6559C66.7707 84.2925 66.4344 84.1109 65.9957 84.1109C65.1378 84.1109 64.6844 84.7475 64.6357 86.0209L64.6308 86.5369C64.6308 87.225 64.7462 87.754 64.9769 88.1238C65.2076 88.4936 65.5505 88.6784 66.0054 88.6784C66.4376 88.6784 66.7707 88.4968 67.0047 88.1334C67.2387 87.7701 67.3573 87.2476 67.3605 86.5659V86.2427Z" fill="white"/>
<path d="M75.9108 89.9035H74.2096L71.6944 85.5337V89.9035H69.9834V82.8809H71.6944L74.2047 87.2508V82.8809H75.9108V89.9035Z" fill="white"/>
<path d="M82.8033 89.0354C82.5401 89.3247 82.155 89.5579 81.6481 89.7347C81.1411 89.9116 80.5854 90 79.981 90C79.0516 90 78.3091 89.7186 77.7534 89.1559C77.1977 88.5932 76.9003 87.8103 76.8613 86.807L76.8564 86.1993C76.8564 85.508 76.9799 84.9051 77.2269 84.3906C77.4739 83.8729 77.8265 83.4758 78.2847 83.1993C78.7461 82.9195 79.2791 82.7797 79.8835 82.7797C80.7674 82.7797 81.4531 82.9806 81.9406 83.3826C82.4313 83.7813 82.7172 84.3777 82.7985 85.172H81.1509C81.0924 84.7797 80.9657 84.4999 80.7707 84.3327C80.5757 84.1655 80.2995 84.0819 79.942 84.0819C79.5131 84.0819 79.1816 84.262 78.9476 84.6221C78.7136 84.9822 78.595 85.4967 78.5918 86.1656V86.59C78.5918 87.291 78.712 87.8183 78.9525 88.172C79.1962 88.5225 79.5781 88.6977 80.098 88.6977C80.5432 88.6977 80.8747 88.5997 81.0924 88.4035V87.3135H79.903V86.1511H82.8033V89.0354Z" fill="white"/>
<path d="M86.4345 87.4244H85.5084V89.9035H83.7974V82.8809H86.5905C87.4322 82.8809 88.0903 83.0658 88.5647 83.4356C89.0392 83.8054 89.2764 84.3279 89.2764 85.0032C89.2764 85.4919 89.1756 85.8971 88.9742 86.2186C88.7759 86.5402 88.464 86.8006 88.0383 87L89.5201 89.8312V89.9035H87.6873L86.4345 87.4244ZM85.5084 86.1173H86.5905C86.9155 86.1173 87.1592 86.0337 87.3217 85.8665C87.4874 85.6961 87.5703 85.4597 87.5703 85.1575C87.5703 84.8552 87.4874 84.6189 87.3217 84.4485C87.156 84.2748 86.9122 84.188 86.5905 84.188H85.5084V86.1173Z" fill="white"/>
<path d="M94.7117 86.9276H92.021V88.6013H95.1992V89.9035H90.3101V82.8809H95.2089V84.188H92.021V85.6688H94.7117V86.9276Z" fill="white"/>
<path d="M99.5569 88.0369C99.5569 87.7894 99.4675 87.5964 99.2888 87.4582C99.1133 87.3199 98.803 87.1768 98.3578 87.0289C97.9126 86.881 97.5486 86.7379 97.2659 86.5996C96.3462 86.1527 95.8864 85.5385 95.8864 84.7572C95.8864 84.3681 96.0001 84.0257 96.2276 83.7298C96.4583 83.4308 96.7833 83.1993 97.2025 83.0353C97.6217 82.8681 98.0929 82.7845 98.6161 82.7845C99.1263 82.7845 99.5829 82.8745 99.9859 83.0546C100.392 83.2346 100.707 83.4919 100.931 83.8263C101.156 84.1575 101.268 84.5369 101.268 84.9646H99.5618C99.5618 84.6784 99.4724 84.4565 99.2937 84.299C99.1182 84.1414 98.8793 84.0626 98.5771 84.0626C98.2717 84.0626 98.0296 84.1301 97.8508 84.2652C97.6753 84.397 97.5876 84.5658 97.5876 84.7716C97.5876 84.9517 97.6851 85.1157 97.8801 85.2636C98.0751 85.4083 98.4179 85.5594 98.9086 85.717C99.3993 85.8713 99.8022 86.0385 100.117 86.2186C100.884 86.6559 101.268 87.2588 101.268 88.0273C101.268 88.6415 101.034 89.1238 100.566 89.4743C100.098 89.8248 99.4562 90 98.6405 90C98.0653 90 97.5437 89.8987 97.0758 89.6961C96.6111 89.4903 96.2601 89.2106 96.0229 88.8569C95.7889 88.5 95.6719 88.09 95.6719 87.627H97.3877C97.3877 88.0032 97.4852 88.2813 97.6802 88.4614C97.8784 88.6382 98.1985 88.7267 98.6405 88.7267C98.9232 88.7267 99.1458 88.6672 99.3083 88.5482C99.474 88.426 99.5569 88.2556 99.5569 88.0369Z" fill="white"/>
<path d="M105.806 88.0369C105.806 87.7894 105.717 87.5964 105.538 87.4582C105.362 87.3199 105.052 87.1768 104.607 87.0289C104.162 86.881 103.798 86.7379 103.515 86.5996C102.595 86.1527 102.135 85.5385 102.135 84.7572C102.135 84.3681 102.249 84.0257 102.477 83.7298C102.707 83.4308 103.032 83.1993 103.452 83.0353C103.871 82.8681 104.342 82.7845 104.865 82.7845C105.375 82.7845 105.832 82.8745 106.235 83.0546C106.641 83.2346 106.956 83.4919 107.181 83.8263C107.405 84.1575 107.517 84.5369 107.517 84.9646H105.811C105.811 84.6784 105.721 84.4565 105.543 84.299C105.367 84.1414 105.128 84.0626 104.826 84.0626C104.521 84.0626 104.279 84.1301 104.1 84.2652C103.924 84.397 103.837 84.5658 103.837 84.7716C103.837 84.9517 103.934 85.1157 104.129 85.2636C104.324 85.4083 104.667 85.5594 105.158 85.717C105.648 85.8713 106.051 86.0385 106.366 86.2186C107.133 86.6559 107.517 87.2588 107.517 88.0273C107.517 88.6415 107.283 89.1238 106.815 89.4743C106.347 89.8248 105.705 90 104.89 90C104.314 90 103.793 89.8987 103.325 89.6961C102.86 89.4903 102.509 89.2106 102.272 88.8569C102.038 88.5 101.921 88.09 101.921 87.627H103.637C103.637 88.0032 103.734 88.2813 103.929 88.4614C104.127 88.6382 104.448 88.7267 104.89 88.7267C105.172 88.7267 105.395 88.6672 105.557 88.5482C105.723 88.426 105.806 88.2556 105.806 88.0369Z" fill="white"/>
<path d="M111.529 87.5064H108.599V86.2475H111.529V87.5064Z" fill="white"/>
<path d="M117.739 89.9035H112.786V88.8424L115.067 86.4694C115.63 85.836 115.911 85.3327 115.911 84.9597C115.911 84.6575 115.844 84.4276 115.711 84.27C115.578 84.1125 115.384 84.0337 115.131 84.0337C114.881 84.0337 114.677 84.1398 114.522 84.352C114.366 84.561 114.288 84.8231 114.288 85.1382H112.64C112.64 84.7073 112.749 84.3102 112.967 83.9469C113.184 83.5803 113.486 83.2941 113.873 83.0883C114.26 82.8826 114.692 82.7797 115.17 82.7797C115.937 82.7797 116.527 82.9549 116.939 83.3054C117.355 83.6559 117.563 84.1591 117.563 84.815C117.563 85.0916 117.511 85.3617 117.407 85.6253C117.303 85.8858 117.141 86.1607 116.92 86.4501C116.702 86.7363 116.349 87.1205 115.862 87.6029L114.946 88.6495H117.739V89.9035Z" fill="white"/>
<path d="M123.495 87.0337C123.495 87.9823 123.279 88.7138 122.847 89.2283C122.418 89.7428 121.812 90 121.029 90C120.239 90 119.628 89.7412 119.196 89.2235C118.764 88.7058 118.548 87.9759 118.548 87.0337V85.7507C118.548 84.8022 118.762 84.0707 119.191 83.5562C119.623 83.0417 120.233 82.7845 121.019 82.7845C121.806 82.7845 122.415 83.0433 122.847 83.561C123.279 84.0787 123.495 84.8102 123.495 85.7556V87.0337ZM121.853 85.5434C121.853 85.0385 121.786 84.6623 121.653 84.4147C121.52 84.1639 121.308 84.0385 121.019 84.0385C120.737 84.0385 120.53 84.1543 120.4 84.3858C120.273 84.6173 120.205 84.9678 120.195 85.4372V87.2315C120.195 87.7556 120.262 88.1398 120.395 88.3842C120.529 88.6254 120.74 88.746 121.029 88.746C121.308 88.746 121.515 88.6286 121.648 88.3939C121.781 88.1559 121.85 87.7845 121.853 87.2797V85.5434Z" fill="white"/>
<path d="M129.301 89.9035H124.349V88.8424L126.63 86.4694C127.192 85.836 127.473 85.3327 127.473 84.9597C127.473 84.6575 127.406 84.4276 127.273 84.27C127.14 84.1125 126.947 84.0337 126.693 84.0337C126.443 84.0337 126.24 84.1398 126.084 84.352C125.928 84.561 125.85 84.8231 125.85 85.1382H124.202C124.202 84.7073 124.311 84.3102 124.529 83.9469C124.747 83.5803 125.049 83.2941 125.436 83.0883C125.822 82.8826 126.254 82.7797 126.732 82.7797C127.499 82.7797 128.089 82.9549 128.502 83.3054C128.918 83.6559 129.126 84.1591 129.126 84.815C129.126 85.0916 129.074 85.3617 128.97 85.6253C128.866 85.8858 128.703 86.1607 128.482 86.4501C128.264 86.7363 127.912 87.1205 127.424 87.6029L126.508 88.6495H129.301V89.9035Z" fill="white"/>
<path d="M133.771 89.9035H132.123V84.7138L130.505 85.1816V83.9469L133.62 82.8809H133.771V89.9035Z" fill="white"/>
<path d="M134.444 43.5202C134.444 37.7938 131.55 33.4991 127.21 30.6359C130.682 28.0591 132.708 24.3369 132.708 19.1832C132.708 9.16214 124.605 1.14526 114.478 1.14526H90.4609V61.8445H115.925C126.052 61.8445 134.444 53.8276 134.444 43.5202ZM116.214 42.3749C116.214 44.9518 114.188 46.6697 111.873 46.6697H108.401V37.7938H111.873C114.188 37.7938 116.214 39.7981 116.214 42.3749ZM115.056 20.3285C115.056 22.9054 113.031 24.9096 110.716 24.9096H108.401V16.0338H110.716C113.031 16.0338 115.056 18.038 115.056 20.3285Z" fill="white"/>
<path d="M29.4053 42.9475C29.4053 35.7896 26.5117 31.2086 24.4861 27.7727C23.0393 25.4822 21.8819 23.478 21.8819 21.4738C21.8819 18.038 24.1968 15.7474 27.3798 15.7474C27.6691 15.7474 27.6691 15.7474 27.9585 16.0338V1.14527C26.5117 0.286317 23.9074 0 22.1712 0C8.86061 0 2.20529 8.30319 2.20529 19.7559C2.20529 25.1959 4.52019 29.2043 6.25636 32.9265C7.99253 35.5033 9.43934 38.0802 9.43934 40.9433C9.43934 44.3791 6.54572 47.2423 2.78402 47.2423C2.20529 47.2423 1.33721 47.2423 1.04785 46.956V62.1308C3.07338 62.4171 5.38827 62.9897 8.86061 62.9897C21.8819 62.9897 29.4053 53.5413 29.4053 42.9475Z" fill="white"/>
<path d="M83.8056 24.9096C83.8056 11.739 73.0992 1.14526 59.7886 1.14526H38.0864V61.8445H56.3162V48.6739H59.7886C73.0992 48.6739 83.8056 38.0802 83.8056 24.9096ZM66.4439 24.9096C66.4439 28.6317 63.5503 31.4949 59.7886 31.4949H56.3162V18.3243H59.7886C63.5503 18.3243 66.4439 21.1875 66.4439 24.9096Z" fill="white"/>
<path d="M3.77282 76.4666C3.77282 76.1834 3.68035 75.9669 3.49541 75.817C3.31047 75.6638 2.97757 75.5039 2.49672 75.3373C2.01587 75.1674 1.6352 75.0008 1.3547 74.8376C0.590274 74.3912 0.20806 73.7899 0.20806 73.0337C0.20806 72.6406 0.309778 72.2909 0.513215 71.9844C0.719734 71.6746 1.0141 71.4331 1.39631 71.2598C1.78161 71.0866 2.21314 71 2.69091 71C3.17176 71 3.60021 71.0949 3.97626 71.2848C4.35231 71.4714 4.64359 71.7362 4.85011 72.0793C5.05972 72.4224 5.16452 72.8122 5.16452 73.2486H3.77745C3.77745 72.9155 3.68035 72.6573 3.48616 72.4741C3.29197 72.2875 3.01918 72.1943 2.66779 72.1943C2.32873 72.1943 2.06519 72.2725 1.87717 72.4291C1.68914 72.5823 1.59513 72.7856 1.59513 73.0387C1.59513 73.2752 1.70455 73.4735 1.9234 73.6334C2.14533 73.7933 2.47052 73.9432 2.89897 74.0831C3.68806 74.3396 4.26292 74.6577 4.62356 75.0375C4.9842 75.4172 5.16452 75.8903 5.16452 76.4566C5.16452 77.0862 4.94413 77.5809 4.50335 77.9407C4.06257 78.2971 3.46921 78.4753 2.72328 78.4753C2.20544 78.4753 1.73383 78.3737 1.30847 78.1705C0.8831 77.964 0.557909 77.6825 0.332896 77.326C0.110965 76.9696 0 76.5565 0 76.0868H1.39169C1.39169 76.8897 1.83555 77.2911 2.72328 77.2911C3.05309 77.2911 3.31047 77.2194 3.49541 77.0762C3.68035 76.9296 3.77282 76.7264 3.77282 76.4666Z" fill="white"/>
<path d="M11.2399 76.0668C11.1566 76.8364 10.8931 77.431 10.4492 77.8507C10.0085 78.2671 9.42127 78.4753 8.68767 78.4753C7.89242 78.4753 7.25436 78.1672 6.77351 77.5509C6.29575 76.9346 6.05686 76.1101 6.05686 75.0775V74.3779C6.05686 73.7016 6.16783 73.107 6.38976 72.594C6.61477 72.081 6.93226 71.6879 7.34221 71.4147C7.75217 71.1382 8.22685 71 8.76627 71C9.48138 71 10.0547 71.2165 10.4862 71.6496C10.9178 72.0793 11.169 72.6756 11.2399 73.4385H10.3475C10.2705 72.8588 10.1025 72.4391 9.84356 72.1793C9.58772 71.9194 9.22862 71.7895 8.76627 71.7895C8.19911 71.7895 7.75371 72.016 7.43006 72.4691C7.10949 72.9221 6.94921 73.5667 6.94921 74.4029V75.1074C6.94921 75.8969 7.10179 76.5249 7.40694 76.9913C7.7121 77.4576 8.13901 77.6908 8.68767 77.6908C9.18085 77.6908 9.55844 77.5709 9.82044 77.331C10.0855 77.0879 10.2612 76.6665 10.3475 76.0668H11.2399Z" fill="white"/>
<path d="M13.4083 78.3754H12.5206V71.0999H13.4083V78.3754Z" fill="white"/>
<path d="M18.841 75.0125H15.9235V77.5909H19.3126V78.3754H15.0358V71.0999H19.2664V71.8894H15.9235V74.228H18.841V75.0125Z" fill="white"/>
<path d="M25.5914 78.3754H24.6991L21.31 72.7689V78.3754H20.4176V71.0999H21.31L24.7083 76.7314V71.0999H25.5914V78.3754Z" fill="white"/>
<path d="M32.1199 76.0668C32.0366 76.8364 31.7731 77.431 31.3292 77.8507C30.8885 78.2671 30.3013 78.4753 29.5677 78.4753C28.7724 78.4753 28.1344 78.1672 27.6535 77.5509C27.1757 76.9346 26.9369 76.1101 26.9369 75.0775V74.3779C26.9369 73.7016 27.0478 73.107 27.2698 72.594C27.4948 72.081 27.8123 71.6879 28.2222 71.4147C28.6322 71.1382 29.1068 71 29.6463 71C30.3614 71 30.9347 71.2165 31.3662 71.6496C31.7978 72.0793 32.049 72.6756 32.1199 73.4385H31.2275C31.1505 72.8588 30.9825 72.4391 30.7236 72.1793C30.4677 71.9194 30.1086 71.7895 29.6463 71.7895C29.0791 71.7895 28.6337 72.016 28.3101 72.4691C27.9895 72.9221 27.8292 73.5667 27.8292 74.4029V75.1074C27.8292 75.8969 27.9818 76.5249 28.2869 76.9913C28.5921 77.4576 29.019 77.6908 29.5677 77.6908C30.0608 77.6908 30.4384 77.5709 30.7004 77.331C30.9655 77.0879 31.1412 76.6665 31.2275 76.0668H32.1199Z" fill="white"/>
<path d="M37.1411 75.0125H34.2236V77.5909H37.6127V78.3754H33.3359V71.0999H37.5664V71.8894H34.2236V74.228H37.1411V75.0125Z" fill="white"/>
<path d="M41.1034 79H40.3683L43.1794 71.0999H43.9099L41.1034 79Z" fill="white"/>
<path d="M48.5243 75.812V78.3754H47.1372V71.0999H49.7634C50.2689 71.0999 50.7127 71.1999 51.095 71.3998C51.4803 71.5996 51.7762 71.8844 51.9827 72.2542C52.1892 72.6207 52.2925 73.0387 52.2925 73.5084C52.2925 74.2213 52.0659 74.7843 51.6128 75.1974C51.1628 75.6071 50.5386 75.812 49.7403 75.812H48.5243ZM48.5243 74.5978H49.7634C50.1302 74.5978 50.4091 74.5045 50.6002 74.3179C50.7944 74.1314 50.8915 73.8649 50.8915 73.5184C50.8915 73.162 50.7944 72.8738 50.6002 72.654C50.406 72.4341 50.1379 72.3208 49.7957 72.3142H48.5243V74.5978Z" fill="white"/>
<path d="M55.8988 75.4322H54.3176V78.3754H53.4252V71.0999H55.6538C56.412 71.0999 56.9946 71.2865 57.4015 71.6596C57.8114 72.0327 58.0164 72.5757 58.0164 73.2886C58.0164 73.7416 57.9024 74.1364 57.6743 74.4728C57.4493 74.8093 57.1349 75.0608 56.7311 75.2274L58.3123 78.3154V78.3754H57.3599L55.8988 75.4322ZM54.3176 74.6477H55.6815C56.1223 74.6477 56.4722 74.5245 56.7311 74.278C56.9931 74.0314 57.1241 73.7016 57.1241 73.2886C57.1241 72.8389 56.9992 72.4941 56.7496 72.2542C56.503 72.0144 56.1454 71.8928 55.6769 71.8894H54.3176V74.6477Z" fill="white"/>
<path d="M62.9821 76.4766H60.1618L59.5283 78.3754H58.6129L61.1836 71.0999H61.9603L64.5356 78.3754H63.6248L62.9821 76.4766ZM60.4299 75.6871H62.7186L61.5719 72.2842L60.4299 75.6871Z" fill="white"/>
<path d="M70.3382 76.0668C70.255 76.8364 69.9914 77.431 69.5476 77.8507C69.1068 78.2671 68.5196 78.4753 67.786 78.4753C66.9908 78.4753 66.3527 78.1672 65.8718 77.5509C65.3941 76.9346 65.1552 76.1101 65.1552 75.0775V74.3779C65.1552 73.7016 65.2662 73.107 65.4881 72.594C65.7131 72.081 66.0306 71.6879 66.4406 71.4147C66.8505 71.1382 67.3252 71 67.8646 71C68.5797 71 69.153 71.2165 69.5846 71.6496C70.0161 72.0793 70.2673 72.6756 70.3382 73.4385H69.4459C69.3688 72.8588 69.2008 72.4391 68.9419 72.1793C68.6861 71.9194 68.327 71.7895 67.8646 71.7895C67.2974 71.7895 66.852 72.016 66.5284 72.4691C66.2078 72.9221 66.0475 73.5667 66.0475 74.4029V75.1074C66.0475 75.8969 66.2001 76.5249 66.5053 76.9913C66.8104 77.4576 67.2373 77.6908 67.786 77.6908C68.2792 77.6908 68.6568 77.5709 68.9188 77.331C69.1839 77.0879 69.3596 76.6665 69.4459 76.0668H70.3382Z" fill="white"/>
<path d="M76.0668 71.8894H73.903V78.3754H73.0199V71.8894H70.8607V71.0999H76.0668V71.8894Z" fill="white"/>
<path d="M78.0179 78.3754H77.1302V71.0999H78.0179V78.3754Z" fill="white"/>
<path d="M84.5973 76.0668C84.514 76.8364 84.2505 77.431 83.8066 77.8507C83.3659 78.2671 82.7787 78.4753 82.0451 78.4753C81.2498 78.4753 80.6118 78.1672 80.1309 77.5509C79.6531 76.9346 79.4143 76.1101 79.4143 75.0775V74.3779C79.4143 73.7016 79.5252 73.107 79.7472 72.594C79.9722 72.081 80.2897 71.6879 80.6996 71.4147C81.1096 71.1382 81.5842 71 82.1237 71C82.8388 71 83.4121 71.2165 83.8436 71.6496C84.2752 72.0793 84.5264 72.6756 84.5973 73.4385H83.7049C83.6279 72.8588 83.4599 72.4391 83.201 72.1793C82.9451 71.9194 82.586 71.7895 82.1237 71.7895C81.5565 71.7895 81.1111 72.016 80.7875 72.4691C80.4669 72.9221 80.3066 73.5667 80.3066 74.4029V75.1074C80.3066 75.8969 80.4592 76.5249 80.7643 76.9913C81.0695 77.4576 81.4964 77.6908 82.0451 77.6908C82.5382 77.6908 82.9158 77.5709 83.1778 77.331C83.4429 77.0879 83.6186 76.6665 83.7049 76.0668H84.5973Z" fill="white"/>
<path d="M89.6185 75.0125H86.701V77.5909H90.0901V78.3754H85.8133V71.0999H90.0438V71.8894H86.701V74.228H89.6185V75.0125Z" fill="white"/>
<path d="M93.5808 79H92.8457L95.6568 71.0999H96.3873L93.5808 79Z" fill="white"/>
<path d="M99.6146 78.3754V71.0999H101.973C102.789 71.0999 103.409 71.2698 103.831 71.6096C104.254 71.9461 104.465 72.4408 104.465 73.0937C104.465 73.4501 104.38 73.7649 104.21 74.0381C104.041 74.3079 103.805 74.5061 103.503 74.6327C103.848 74.726 104.119 74.9142 104.317 75.1974C104.517 75.4805 104.617 75.827 104.617 76.2367C104.617 76.9363 104.411 77.466 103.998 77.8257C103.585 78.1855 102.996 78.3687 102.232 78.3754H99.6146ZM101.002 75.2074V77.1711H102.19C102.517 77.1711 102.771 77.0879 102.953 76.9213C103.138 76.7514 103.23 76.5182 103.23 76.2217C103.23 75.5555 102.911 75.2174 102.273 75.2074H101.002ZM101.002 74.148H102.028C102.728 74.1347 103.078 73.8332 103.078 73.2436C103.078 72.9138 102.988 72.6773 102.809 72.534C102.634 72.3875 102.355 72.3142 101.973 72.3142H101.002V74.148Z" fill="white"/>
<path d="M109.648 75.0125H106.73V77.5909H110.119V78.3754H105.843V71.0999H110.073V71.8894H106.73V74.228H109.648V75.0125Z" fill="white"/>
<path d="M114.942 76.4766H112.121L111.488 78.3754H110.572L113.143 71.0999H113.92L116.495 78.3754H115.584L114.942 76.4766ZM112.389 75.6871H114.678L113.532 72.2842L112.389 75.6871Z" fill="white"/>
<path d="M122.057 71.0999V76.0468C122.054 76.7331 121.854 77.2944 121.456 77.7308C121.062 78.1672 120.525 78.412 119.847 78.4653L119.611 78.4753C118.875 78.4753 118.288 78.2605 117.85 77.8307C117.412 77.401 117.19 76.8097 117.184 76.0568V71.0999H118.063V76.0269C118.063 76.5532 118.197 76.9629 118.465 77.2561C118.733 77.5459 119.115 77.6908 119.611 77.6908C120.114 77.6908 120.498 77.5459 120.763 77.2561C121.031 76.9663 121.165 76.5582 121.165 76.0319V71.0999H122.057Z" fill="white"/>
<path d="M128.11 71.8894H125.946V78.3754H125.063V71.8894H122.903V71.0999H128.11V71.8894Z" fill="white"/>
<path d="M131.235 74.7527L132.992 71.0999H134L131.679 75.6621V78.3754H130.791V75.6621L128.47 71.0999H129.487L131.235 74.7527Z" fill="white"/>
</svg>
