<svg width="75" height="72" viewBox="0 0 75 72" fill="none" xmlns="http://www.w3.org/2000/svg">
<path d="M52.0161 31.4516C48.6666 31.4516 45.3923 32.4449 42.6073 34.3058C39.8222 36.1667 37.6516 38.8116 36.3698 41.9062C35.088 45.0007 34.7526 48.4059 35.406 51.691C36.0595 54.9762 37.6724 57.9938 40.0409 60.3623C42.4094 62.7308 45.427 64.3437 48.7122 64.9972C51.9973 65.6506 55.4025 65.3153 58.497 64.0334C61.5916 62.7516 64.2366 60.581 66.0975 57.7959C67.9583 55.0109 68.9516 51.7366 68.9516 48.3871C68.9466 43.8971 67.1607 39.5924 63.9857 36.4175C60.8108 33.2425 56.5061 31.4566 52.0161 31.4516ZM60.1294 56.5004C60.0171 56.6128 59.8838 56.7019 59.737 56.7627C59.5903 56.8235 59.433 56.8548 59.2741 56.8548C59.1153 56.8548 58.958 56.8235 58.8112 56.7627C58.6645 56.7019 58.5312 56.6128 58.4189 56.5004L51.1608 49.2423C50.934 49.0155 50.8065 48.7079 50.8064 48.3871V36.2903C50.8064 35.9695 50.9339 35.6618 51.1607 35.435C51.3876 35.2081 51.6953 35.0806 52.0161 35.0806C52.3369 35.0806 52.6446 35.2081 52.8715 35.435C53.0983 35.6618 53.2258 35.9695 53.2258 36.2903V47.8862L60.1294 54.7898C60.2418 54.9021 60.3309 55.0355 60.3917 55.1822C60.4525 55.329 60.4838 55.4863 60.4838 55.6451C60.4838 55.804 60.4525 55.9613 60.3917 56.108C60.3309 56.2548 60.2418 56.3881 60.1294 56.5004Z" fill="#FFCC40"/>
<path d="M52.0161 25.4032C47.4703 25.4032 43.0266 26.7512 39.247 29.2767C35.4673 31.8022 32.5214 35.3918 30.7818 39.5916C29.0422 43.7913 28.587 48.4126 29.4739 52.871C30.3607 57.3295 32.5497 61.4248 35.7641 64.6391C38.9784 67.8535 43.0737 70.0425 47.5322 70.9293C51.9906 71.8162 56.6119 71.361 60.8117 69.6214C65.0114 67.8818 68.601 64.9359 71.1265 61.1563C73.652 57.3766 75 52.9329 75 48.3871C74.9931 42.2935 72.5693 36.4515 68.2605 32.1427C63.9517 27.8339 58.1097 25.4102 52.0161 25.4032ZM52.0161 67.7419C48.1881 67.7419 44.446 66.6068 41.2631 64.4801C38.0803 62.3533 35.5995 59.3305 34.1346 55.7939C32.6696 52.2572 32.2864 48.3656 33.0332 44.6112C33.78 40.8567 35.6233 37.408 38.3302 34.7012C41.037 31.9943 44.4857 30.151 48.2402 29.4042C51.9946 28.6573 55.8863 29.0406 59.4229 30.5056C62.9595 31.9705 65.9823 34.4512 68.1091 37.6341C70.2358 40.817 71.3709 44.5591 71.3709 48.3871C71.3651 53.5185 69.324 58.4381 65.6956 62.0666C62.0671 65.695 57.1475 67.7361 52.0161 67.7419Z" fill="#FFCC40"/>
<path d="M45.406 15.1647C45.5195 15.0526 45.6096 14.9192 45.6713 14.7721C45.733 14.6251 45.7651 14.4673 45.7656 14.3078C45.7661 14.1483 45.7351 13.9903 45.6743 13.8429C45.6135 13.6954 45.5242 13.5615 45.4115 13.4487C45.2987 13.3359 45.1648 13.2465 45.0174 13.1856C44.87 13.1247 44.712 13.0936 44.5526 13.094C44.3931 13.0944 44.2353 13.1263 44.0882 13.1879C43.9411 13.2495 43.8076 13.3396 43.6955 13.453C43.0041 14.1132 42.085 14.4816 41.129 14.4816C40.1731 14.4816 39.2539 14.1132 38.5626 13.453C38.3352 13.2283 38.0281 13.1027 37.7084 13.1037C37.3886 13.1047 37.0823 13.2323 36.8563 13.4584C36.6303 13.6845 36.503 13.9909 36.5022 14.3107C36.5014 14.6304 36.6272 14.9374 36.852 15.1647C37.4136 15.7265 38.0804 16.1722 38.8142 16.4762C39.5481 16.7803 40.3347 16.9368 41.129 16.9368C41.9234 16.9368 42.71 16.7803 43.4438 16.4762C44.1777 16.1722 44.8444 15.7265 45.406 15.1647Z" fill="#013066"/>
<path d="M59.2742 36.2903H53.2258V31.4516C53.2223 29.1496 52.5623 26.8964 51.3232 24.9564C50.0841 23.0163 48.3175 21.4699 46.2304 20.4986C47.8115 19.6582 49.1614 18.4415 50.1607 16.9558C51.1601 15.4702 51.7783 13.7613 51.9608 11.98C53.4367 11.6937 54.753 10.8677 55.6528 9.66317C56.5525 8.45865 56.9711 6.96208 56.827 5.46555C56.6828 3.96901 55.9861 2.5799 54.8729 1.56933C53.7597 0.558756 52.3099 -0.000751397 50.8065 1.19036e-06C49.3051 -0.000947604 47.8587 0.565324 46.7571 1.58542C45.513 0.831235 44.1302 0.334306 42.6906 0.124044C41.251 -0.0862184 39.7839 -0.00554067 38.3761 0.361301C36.9682 0.728143 35.6483 1.37369 34.4943 2.25974C33.3404 3.14579 32.376 4.25433 31.6581 5.51975C30.9402 6.78516 30.4835 8.18173 30.315 9.6268C30.1465 11.0719 30.2696 12.5361 30.677 13.9327C31.0844 15.3293 31.7679 16.6301 32.6869 17.7579C33.606 18.8857 34.742 19.8176 36.0276 20.4986C33.9406 21.4699 32.1739 23.0163 30.9349 24.9564C29.6958 26.8964 29.0358 29.1496 29.0323 31.4516V36.2903H22.3486C23.0442 34.3258 23.1611 32.2028 22.6853 30.1738C22.2094 28.1448 21.1609 26.2951 19.6644 24.8446C18.168 23.3941 16.2864 22.4039 14.2435 21.9917C12.2006 21.5795 10.0823 21.7626 8.14048 22.5192C6.19862 23.2759 4.5149 24.5743 3.28949 26.26C2.06408 27.9457 1.34853 29.9479 1.22792 32.0285C1.10731 34.1091 1.58672 36.1805 2.60913 37.9965C3.63155 39.8126 5.15397 41.2968 6.99538 42.2728C4.90836 43.2441 3.14167 44.7905 1.90261 46.7306C0.663549 48.6706 0.00352995 50.9238 0 53.2258V59.2742C0 59.595 0.127448 59.9027 0.354306 60.1296C0.581165 60.3564 0.888851 60.4839 1.20968 60.4839H59.2742C59.595 60.4839 59.9027 60.3564 60.1296 60.1296C60.3564 59.9027 60.4839 59.595 60.4839 59.2742V37.5C60.4839 37.1792 60.3564 36.8715 60.1296 36.6446C59.9027 36.4178 59.595 36.2903 59.2742 36.2903ZM50.8065 2.41936C51.6707 2.41687 52.5074 2.7238 53.165 3.28462C53.8226 3.84545 54.2578 4.62312 54.3918 5.47695C54.5257 6.33078 54.3497 7.20437 53.8955 7.93968C53.4413 8.67498 52.7389 9.22344 51.9154 9.48582C51.602 7.06262 50.4805 4.81597 48.7321 3.10917C49.3335 2.66622 50.0595 2.42477 50.8065 2.41936ZM49.4827 9.56335C47.7197 9.28162 46.0908 8.45021 44.8284 7.18778C43.5659 5.92535 42.7345 4.29641 42.4528 2.53343C44.2158 2.81516 45.8447 3.64657 47.1071 4.909C48.3696 6.17143 49.201 7.80037 49.4827 9.56335ZM39.8053 2.53343C39.5236 4.29641 38.6921 5.92535 37.4297 7.18778C36.1673 8.45021 34.5383 9.28162 32.7754 9.56335C33.0571 7.80037 33.8885 6.17143 35.1509 4.909C36.4134 3.64657 38.0423 2.81516 39.8053 2.53343ZM32.745 12.0126C34.5131 11.7984 36.2018 11.1543 37.6633 10.1365C39.1249 9.11874 40.3148 7.75836 41.129 6.17435C41.9432 7.75836 43.1332 9.11874 44.5947 10.1365C46.0563 11.1543 47.745 11.7984 49.5131 12.0126C49.2426 14.0446 48.2434 15.9093 46.7013 17.2598C45.1591 18.6103 43.179 19.3548 41.129 19.3548C39.0791 19.3548 37.0989 18.6103 35.5568 17.2598C34.0146 15.9093 33.0154 14.0446 32.745 12.0126ZM31.4516 31.4516C31.4516 28.885 32.4712 26.4235 34.2861 24.6086C36.1009 22.7938 38.5624 21.7742 41.129 21.7742C43.6956 21.7742 46.1571 22.7938 47.972 24.6086C49.7869 26.4235 50.8065 28.885 50.8065 31.4516V36.2903H31.4516V31.4516ZM47.1774 38.7097V44.7581C47.177 45.0788 47.0494 45.3862 46.8227 45.613C46.5959 45.8397 46.2884 45.9673 45.9677 45.9677H36.2903C35.9696 45.9673 35.6622 45.8397 35.4354 45.613C35.2086 45.3862 35.0811 45.0788 35.0806 44.7581V38.7097H47.1774ZM3.78785 34.2773C3.40946 32.3433 3.71814 30.3379 4.6606 28.6073C5.60306 26.8766 7.12016 25.5293 8.95004 24.7978C10.7799 24.0664 12.8077 23.9968 14.6835 24.601C16.5592 25.2052 18.1651 26.4453 19.2241 28.1072C18.969 29.7665 18.2854 31.3305 17.2409 32.6447C16.1964 33.959 14.8271 34.978 13.2682 35.6011C11.7094 36.2242 10.015 36.4298 8.35232 36.1976C6.68969 35.9655 5.11639 35.3035 3.78785 34.2773ZM5.50317 37.9618C8.30853 38.9983 11.3988 38.9561 14.1749 37.8435C16.951 36.731 19.215 34.6272 20.528 31.9401C20.5482 32.1784 20.5646 32.4179 20.5646 32.6613C20.566 34.4142 20.0229 36.1243 19.0104 37.5553C17.9978 38.9862 16.5659 40.0674 14.9123 40.6493C13.2588 41.2312 11.4653 41.2852 9.7798 40.8037C8.09426 40.3223 6.59991 39.3292 5.50317 37.9618ZM21.7742 58.0645H2.41935V53.2258C2.41935 50.6592 3.43894 48.1977 5.25381 46.3828C7.06867 44.568 9.53016 43.5484 12.0968 43.5484C14.6634 43.5484 17.1249 44.568 18.9397 46.3828C20.7546 48.1977 21.7742 50.6592 21.7742 53.2258V58.0645ZM58.0645 58.0645H24.1936V53.2258H58.0645V58.0645ZM58.0645 50.8065H23.9498C23.5667 48.9565 22.7568 47.2216 21.5846 45.74C20.4124 44.2584 18.9104 43.0712 17.1982 42.2728C18.7854 41.4266 20.1401 40.203 21.1429 38.7097H32.6613V44.7581C32.6623 45.7202 33.045 46.6427 33.7254 47.323C34.4057 48.0034 35.3282 48.386 36.2903 48.3871H45.9677C46.9299 48.386 47.8523 48.0034 48.5327 47.323C49.213 46.6427 49.5957 45.7202 49.5968 44.7581V38.7097H58.0645V50.8065Z" fill="#013066"/>
</svg>
