<svg width="18" height="18" viewBox="0 0 18 18" fill="none" xmlns="http://www.w3.org/2000/svg">
<path d="M9.09934 0C4.17978 0 0.198242 4.02525 0.198242 9C0.198242 13.9742 4.17926 18 9.09934 18C14.0189 18 18.0004 13.9747 18.0004 9C18.0004 4.02578 14.0194 0 9.09934 0ZM9.09934 16.7442C4.87612 16.7442 1.44026 13.2701 1.44026 9C1.44026 4.72985 4.87612 1.25582 9.09934 1.25582C13.3226 1.25582 16.7584 4.72985 16.7584 9C16.7584 13.2701 13.3226 16.7442 9.09934 16.7442Z" fill="#C13535"/>
<path d="M9.09934 7.15813C8.75637 7.15813 8.47835 7.43927 8.47835 7.78602V12.9349C8.47835 13.2816 8.75641 13.5628 9.09934 13.5628C9.44228 13.5628 9.72033 13.2816 9.72033 12.9349V7.78605C9.72033 7.43927 9.44231 7.15813 9.09934 7.15813Z" fill="#C13535"/>
<path d="M9.09934 4.43721C8.75637 4.43721 8.47835 4.71836 8.47835 5.0651V5.81861C8.47835 6.16539 8.75641 6.4465 9.09934 6.4465C9.44228 6.4465 9.72033 6.16535 9.72033 5.81861V5.0651C9.72033 4.71836 9.44231 4.43721 9.09934 4.43721Z" fill="#C13535"/>
</svg>
