<svg width="35" height="35" viewBox="0 0 35 35" fill="none" xmlns="http://www.w3.org/2000/svg">
<path d="M17.5 35C27.149 35 35 27.1497 35 17.5C35 15.8345 34.7675 14.1931 34.3072 12.6212C34.0804 11.8482 33.2732 11.4043 32.4981 11.6311C31.7244 11.8571 31.2819 12.6671 31.508 13.4401C31.8893 14.746 32.0833 16.1125 32.0833 17.5C32.0833 25.5411 25.5411 32.0833 17.5 32.0833C9.45887 32.0833 2.91667 25.5411 2.91667 17.5C2.91667 9.45887 9.45887 2.91667 17.5 2.91667C20.4224 2.91667 23.234 3.77116 25.6308 5.38722C26.2981 5.83761 27.2053 5.66066 27.6549 4.99344C28.105 4.32551 27.9294 3.41904 27.2615 2.969C24.3812 1.02681 21.0059 0 17.5 0C7.851 0 0 7.85029 0 17.5C0 27.1497 7.851 35 17.5 35Z" fill="#375B28"/>
<path d="M32.5106 3.34391L17.5 18.3538L12.6978 13.5522C12.1281 12.9829 11.2052 12.9829 10.6356 13.5522C10.0663 14.1219 10.0663 15.0448 10.6356 15.6144L16.4689 21.4478C16.7541 21.7329 17.1265 21.875 17.5 21.875C17.8735 21.875 18.2459 21.7329 18.5311 21.4478L34.5728 5.40609C35.1421 4.83643 35.1421 3.91357 34.5728 3.34391C34.0031 2.77461 33.0802 2.77461 32.5106 3.34391Z" fill="#375B28"/>
</svg>
