<?xml version="1.0" standalone="no"?>
<!DOCTYPE svg PUBLIC "-//W3C//DTD SVG 20010904//EN"
 "http://www.w3.org/TR/2001/REC-SVG-20010904/DTD/svg10.dtd">
<svg version="1.0" xmlns="http://www.w3.org/2000/svg"
 width="100.000000pt" height="100.000000pt" viewBox="0 0 100.000000 100.000000"
 preserveAspectRatio="xMidYMid meet">
<metadata>
Created by potrace 1.11, written by Peter Selinger 2001-2013
</metadata>
<g transform="translate(0.000000,100.000000) scale(0.100000,-0.100000)"
fill="#000000" stroke="none">
<path d="M0 500 l0 -500 500 0 500 0 0 500 0 500 -500 0 -500 0 0 -500z m208
304 c19 -5 22 -13 22 -53 0 -35 -5 -49 -20 -59 -26 -16 -25 -34 6 -99 41 -84
22 -163 -48 -199 -29 -15 -102 -23 -112 -13 -3 2 -6 26 -7 54 -3 45 -1 50 21
55 30 7 39 50 17 83 -8 12 -20 39 -27 61 -22 69 17 145 86 166 38 11 35 11 62
4z m281 -14 c76 -21 130 -109 115 -185 -10 -56 -69 -113 -131 -128 l-53 -12 0
-42 0 -43 -60 0 -60 0 0 210 0 210 78 0 c42 0 93 -4 111 -10z m392 -13 c14 -9
32 -29 40 -43 18 -34 16 -102 -4 -122 -15 -14 -14 -18 8 -44 29 -35 31 -67 8
-115 -25 -53 -76 -73 -190 -73 l-93 0 0 211 0 211 103 -4 c75 -3 109 -8 128
-21z m-786 -457 c3 6 11 7 17 4 7 -4 4 -10 -6 -16 -9 -5 -14 -13 -11 -18 6 -9
-10 -7 -38 5 -14 6 -15 10 -6 21 8 10 15 11 24 4 9 -8 15 -8 20 0z m67 -15
c-2 -14 -11 -25 -18 -25 -20 0 -17 38 4 43 9 3 18 5 18 6 1 0 -1 -10 -4 -24z
m85 7 c-10 -2 -16 -9 -14 -16 8 -19 -21 -15 -40 6 -9 11 -11 18 -5 18 7 0 12
-4 12 -10 0 -5 5 -10 11 -10 5 0 7 5 3 12 -4 6 -3 8 4 4 6 -3 13 -2 17 4 4 6
12 7 18 3 8 -5 6 -9 -6 -11z m170 9 c8 8 13 7 18 -2 5 -8 4 -10 -3 -5 -17 10
-15 -3 2 -20 13 -12 15 -11 21 6 8 24 25 27 25 4 0 -13 4 -11 18 7 13 15 21
19 26 11 4 -7 1 -12 -9 -12 -12 0 -15 -5 -11 -16 5 -13 1 -15 -19 -12 -14 3
-28 1 -31 -4 -3 -5 -12 -4 -20 3 -8 6 -14 8 -14 3 0 -5 -4 -3 -9 5 -8 12 -12
12 -25 2 -14 -12 -16 -11 -16 6 0 26 10 35 25 23 7 -6 15 -6 22 1z m235 -16
c-5 -27 -22 -35 -22 -10 0 8 -7 15 -15 15 -8 0 -15 -6 -15 -13 0 -8 -7 -14
-15 -14 -26 0 13 35 44 40 14 2 27 5 27 6 1 0 -1 -10 -4 -24z m120 0 c-2 -14
-9 -25 -14 -25 -5 0 -7 3 -5 8 2 4 7 15 10 25 9 25 15 21 9 -8z m-432 -5 c-6
-11 -13 -20 -16 -20 -2 0 0 9 6 20 6 11 13 20 16 20 2 0 0 -9 -6 -20z m220 0
c0 -11 -4 -20 -9 -20 -6 0 -9 9 -8 20 1 11 5 20 9 20 4 0 8 -9 8 -20z m255 10
c-3 -6 4 -14 17 -19 21 -9 21 -10 -9 -10 -18 -1 -33 1 -33 3 0 14 14 36 22 36
5 0 6 -5 3 -10z m52 -22 c-3 -7 -5 -2 -5 12 0 14 2 19 5 13 2 -7 2 -19 0 -25z
m33 12 c0 -11 -2 -20 -4 -20 -2 0 -6 9 -9 20 -3 11 -1 20 4 20 5 0 9 -9 9 -20z
m50 8 c0 -15 -18 -17 -30 -3 -9 11 -8 14 9 12 12 -1 21 -5 21 -9z m-872 -90
l11 -23 0 23 c1 12 7 22 15 22 9 0 13 -7 11 -18 -2 -12 3 -18 15 -18 10 0 16
4 13 9 -3 5 0 8 6 6 32 -11 5 -24 -49 -25 -48 0 -60 3 -55 14 3 7 5 18 5 23 0
17 17 9 28 -13z m150 10 c9 -9 12 -9 12 0 0 7 16 12 44 12 42 0 43 -1 37 -27
-5 -26 -6 -26 -9 -5 -2 12 -10 22 -17 22 -8 0 -12 -8 -10 -20 3 -16 -1 -19
-21 -18 -13 1 -24 6 -24 11 0 5 -7 4 -15 -3 -13 -10 -15 -9 -15 9 0 28 -20 27
-21 -1 -2 -23 -2 -23 -6 1 -4 18 -10 22 -29 18 -13 -2 -24 0 -24 4 0 14 84 11
98 -3z m172 2 c0 -5 -7 -7 -15 -4 -8 4 -15 1 -15 -5 0 -6 8 -11 17 -11 13 0
14 -3 5 -12 -8 -8 -15 -8 -26 1 -11 9 -15 9 -19 -1 -3 -7 -6 -2 -6 12 -1 21 4
25 29 27 17 1 30 -2 30 -7z m275 -9 c-2 -11 4 -17 15 -17 10 0 16 4 14 8 -7
11 4 10 29 -3 18 -9 20 -9 10 2 -19 19 -16 29 10 28 12 0 16 -3 9 -6 -18 -7
-4 -23 16 -17 12 4 12 2 -3 -7 -11 -8 -44 -14 -72 -15 -44 -2 -53 0 -54 14 0
15 -1 15 -7 2 -7 -17 -58 -21 -79 -7 -8 5 -13 3 -13 -4 0 -8 -4 -8 -15 1 -8 7
-15 8 -15 3 0 -6 -21 -9 -47 -9 -41 1 -48 4 -51 22 -3 20 1 21 127 21 116 1
129 -1 126 -16z m45 15 c0 -2 -7 -6 -15 -10 -8 -3 -15 -1 -15 4 0 6 7 10 15
10 8 0 15 -2 15 -4z m188 -22 c-1 -13 -8 -24 -15 -24 -16 0 -17 12 -1 28 9 9
9 12 1 12 -7 0 -15 -9 -18 -20 -7 -24 -23 -26 -31 -5 -4 8 -10 12 -15 9 -5 -3
-7 -10 -4 -15 4 -5 -1 -9 -9 -9 -19 0 -20 11 -3 29 10 11 10 13 0 7 -7 -4 -13
-3 -13 2 0 5 25 10 55 10 51 0 54 -2 53 -24z m42 1 c0 -8 -4 -17 -10 -20 -6
-4 -10 5 -10 20 0 15 4 24 10 20 6 -3 10 -12 10 -20z"/>
<path d="M420 635 c0 -38 3 -45 19 -45 23 0 51 25 51 45 0 20 -28 45 -51 45
-16 0 -19 -7 -19 -45z"/>
<path d="M776 693 c-9 -10 -7 -51 3 -58 14 -8 41 23 35 40 -6 16 -29 26 -38
18z"/>
<path d="M770 520 c0 -27 3 -31 23 -28 16 2 22 10 22 28 0 18 -6 26 -22 28
-20 3 -23 -1 -23 -28z"/>
<path d="M60 311 c0 -5 5 -13 10 -16 6 -3 10 -2 10 4 0 5 -4 13 -10 16 -5 3
-10 2 -10 -4z"/>
<path d="M430 220 c0 -5 7 -10 16 -10 8 0 12 5 9 10 -3 6 -10 10 -16 10 -5 0
-9 -4 -9 -10z"/>
<path d="M570 220 c0 -5 7 -7 15 -4 8 4 15 8 15 10 0 2 -7 4 -15 4 -8 0 -15
-4 -15 -10z"/>
</g>
</svg>
