<svg width="20" height="20" viewBox="0 0 20 20" fill="none" xmlns="http://www.w3.org/2000/svg">
<path d="M13.2608 10.6818H0.652172C0.292172 10.6818 0 10.3764 0 10C0 9.62364 0.292172 9.31819 0.652172 9.31819H13.2608C13.6208 9.31819 13.913 9.62364 13.913 10C13.913 10.3764 13.6208 10.6818 13.2608 10.6818Z" fill="black"/>
<path d="M9.78258 14.3181C9.61556 14.3181 9.44869 14.2519 9.32164 14.1182C9.06688 13.8519 9.06688 13.4201 9.32164 13.1536L12.339 9.99917L9.32164 6.84461C9.06688 6.57828 9.06688 6.14632 9.32164 5.87998C9.57655 5.61365 9.98957 5.61365 10.2443 5.87998L13.7225 9.51644C13.9773 9.78277 13.9773 10.2146 13.7225 10.4809L10.2443 14.1172C10.1165 14.2519 9.94961 14.3181 9.78258 14.3181Z" fill="black"/>
<path d="M10.4348 20C6.4773 20 2.9835 17.5109 1.53219 13.6581C1.40004 13.309 1.56515 12.9127 1.89999 12.7745C2.23388 12.6382 2.61394 12.8082 2.7461 13.16C3.99917 16.4864 7.01738 18.6364 10.4348 18.6364C14.9895 18.6364 18.6957 14.7617 18.6957 10C18.6957 5.23829 14.9895 1.36363 10.4348 1.36363C7.01738 1.36363 3.99917 3.51361 2.7461 6.83995C2.61299 7.19184 2.23388 7.3618 1.89999 7.22547C1.56515 7.08731 1.40004 6.69097 1.53219 6.34191C2.9835 2.48906 6.4773 0 10.4348 0C15.7087 0 20 4.48639 20 10C20 15.5136 15.7087 20 10.4348 20Z" fill="black"/>
</svg>
