<svg width="135" height="90" viewBox="0 0 135 90" fill="none" xmlns="http://www.w3.org/2000/svg">
<path d="M4.58203 88.5916H2.2374L1.82794 89.9035H0L2.60298 82.8809H4.21157L6.83405 89.9035H4.99636L4.58203 88.5916ZM2.64685 87.2845H4.17257L3.40728 84.8488L2.64685 87.2845Z" fill="white"/>
<path d="M11.7573 86.9276H9.06657V88.6013H12.2447V89.9035H7.35562V82.8809H12.2545V84.188H9.06657V85.6688H11.7573V86.9276Z" fill="white"/>
<path d="M16.6025 88.0369C16.6025 87.7894 16.5132 87.5964 16.3345 87.4582C16.159 87.3199 15.8486 87.1768 15.4034 87.0289C14.9582 86.881 14.5943 86.7379 14.3115 86.5996C13.3919 86.1527 12.932 85.5385 12.932 84.7572C12.932 84.3681 13.0458 84.0257 13.2733 83.7298C13.504 83.4308 13.829 83.1993 14.2482 83.0353C14.6674 82.8681 15.1386 82.7845 15.6618 82.7845C16.172 82.7845 16.6285 82.8745 17.0315 83.0546C17.4377 83.2346 17.7529 83.4919 17.9772 83.8263C18.2014 84.1575 18.3135 84.5369 18.3135 84.9646H16.6074C16.6074 84.6784 16.5181 84.4565 16.3393 84.299C16.1638 84.1414 15.925 84.0626 15.6228 84.0626C15.3173 84.0626 15.0752 84.1301 14.8965 84.2652C14.721 84.397 14.6333 84.5658 14.6333 84.7716C14.6333 84.9517 14.7307 85.1157 14.9257 85.2636C15.1207 85.4083 15.4635 85.5594 15.9542 85.717C16.4449 85.8713 16.8479 86.0385 17.1631 86.2186C17.93 86.6559 18.3135 87.2588 18.3135 88.0273C18.3135 88.6415 18.0795 89.1238 17.6116 89.4743C17.1436 89.8248 16.5018 90 15.6861 90C15.111 90 14.5894 89.8987 14.1214 89.6961C13.6567 89.4903 13.3058 89.2106 13.0685 88.8569C12.8346 88.5 12.7176 88.09 12.7176 87.627H14.4334C14.4334 88.0032 14.5309 88.2813 14.7259 88.4614C14.9241 88.6382 15.2442 88.7267 15.6861 88.7267C15.9689 88.7267 16.1915 88.6672 16.3539 88.5482C16.5197 88.426 16.6025 88.2556 16.6025 88.0369Z" fill="white"/>
<path d="M24.7625 84.188H22.6323V89.9035H20.9214V84.188H18.8302V82.8809H24.7625V84.188Z" fill="white"/>
<path d="M31.421 89.9035H29.7198V86.971H27.1997V89.9035H25.4888V82.8809H27.1997V85.6688H29.7198V82.8809H31.421V89.9035Z" fill="white"/>
<path d="M36.9097 86.9276H34.219V88.6013H37.3972V89.9035H32.508V82.8809H37.4069V84.188H34.219V85.6688H36.9097V86.9276Z" fill="white"/>
<path d="M43.7633 84.188H41.6331V89.9035H39.9222V84.188H37.831V82.8809H43.7633V84.188Z" fill="white"/>
<path d="M46.3126 89.9035H44.6066V82.8809H46.3126V89.9035Z" fill="white"/>
<path d="M53.2442 87.5257C53.2214 88.0144 53.0882 88.4469 52.8445 88.8231C52.6007 89.1961 52.2579 89.4855 51.8159 89.6913C51.3772 89.8971 50.8752 90 50.3097 90C49.3771 90 48.6426 89.6994 48.1064 89.0981C47.5703 88.4968 47.3022 87.6479 47.3022 86.5514V86.2041C47.3022 85.516 47.4224 84.9147 47.6629 84.4003C47.9066 83.8826 48.2559 83.4838 48.7109 83.2041C49.1658 82.9211 49.6923 82.7797 50.2902 82.7797C51.1514 82.7797 51.8436 83.0047 52.3668 83.4549C52.89 83.9019 53.1873 84.5192 53.2588 85.307H51.5527C51.5397 84.8794 51.4309 84.5723 51.2261 84.3858C51.0214 84.1993 50.7094 84.106 50.2902 84.106C49.8645 84.106 49.5525 84.2636 49.3543 84.5787C49.1561 84.8938 49.0521 85.397 49.0424 86.0884V86.5852C49.0424 87.3344 49.1366 87.8698 49.3251 88.1913C49.5168 88.5128 49.845 88.6736 50.3097 88.6736C50.7029 88.6736 51.0035 88.582 51.2115 88.3987C51.4195 88.2154 51.53 87.9244 51.543 87.5257H53.2442Z" fill="white"/>
<path d="M62.2815 87.5257C62.2587 88.0144 62.1255 88.4469 61.8818 88.8231C61.6381 89.1961 61.2952 89.4855 60.8533 89.6913C60.4146 89.8971 59.9125 90 59.347 90C58.4144 90 57.68 89.6994 57.1438 89.0981C56.6076 88.4968 56.3395 87.6479 56.3395 86.5514V86.2041C56.3395 85.516 56.4597 84.9147 56.7002 84.4003C56.9439 83.8826 57.2933 83.4838 57.7482 83.2041C58.2032 82.9211 58.7296 82.7797 59.3275 82.7797C60.1887 82.7797 60.8809 83.0047 61.4041 83.4549C61.9273 83.9019 62.2246 84.5192 62.2961 85.307H60.59C60.577 84.8794 60.4682 84.5723 60.2635 84.3858C60.0587 84.1993 59.7468 84.106 59.3275 84.106C58.9018 84.106 58.5899 84.2636 58.3916 84.5787C58.1934 84.8938 58.0894 85.397 58.0797 86.0884V86.5852C58.0797 87.3344 58.1739 87.8698 58.3624 88.1913C58.5541 88.5128 58.8823 88.6736 59.347 88.6736C59.7403 88.6736 60.0408 88.582 60.2488 88.3987C60.4568 88.2154 60.5673 87.9244 60.5803 87.5257H62.2815Z" fill="white"/>
<path d="M69.1009 86.5369C69.1009 87.2218 68.9726 87.8279 68.7158 88.3553C68.4591 88.8826 68.0935 89.2894 67.6191 89.5756C67.1479 89.8585 66.61 90 66.0056 90C65.4012 90 64.865 89.8633 64.397 89.59C63.9291 89.3135 63.5635 88.9196 63.3003 88.4083C63.0403 87.8971 62.9038 87.3103 62.8908 86.6479V86.2524C62.8908 85.5643 63.0175 84.9581 63.271 84.434C63.5277 83.9067 63.8933 83.4999 64.3678 83.2137C64.8455 82.9276 65.3882 82.7845 65.9959 82.7845C66.5971 82.7845 67.1332 82.926 67.6044 83.2089C68.0757 83.4919 68.4412 83.8954 68.7012 84.4195C68.9644 84.9405 69.0977 85.5385 69.1009 86.2138V86.5369ZM67.3607 86.2427C67.3607 85.545 67.2421 85.016 67.0049 84.6559C66.7709 84.2925 66.4346 84.1109 65.9959 84.1109C65.1379 84.1109 64.6846 84.7475 64.6359 86.0209L64.631 86.5369C64.631 87.225 64.7464 87.754 64.9771 88.1238C65.2078 88.4936 65.5507 88.6784 66.0056 88.6784C66.4378 88.6784 66.7709 88.4968 67.0049 88.1334C67.2389 87.7701 67.3575 87.2476 67.3607 86.5659V86.2427Z" fill="white"/>
<path d="M75.9106 89.9035H74.2094L71.6942 85.5337V89.9035H69.9832V82.8809H71.6942L74.2045 87.2508V82.8809H75.9106V89.9035Z" fill="white"/>
<path d="M82.8031 89.0354C82.5399 89.3248 82.1548 89.5579 81.6479 89.7347C81.1409 89.9116 80.5852 90 79.9808 90C79.0514 90 78.3089 89.7186 77.7532 89.1559C77.1975 88.5932 76.9001 87.8103 76.8611 86.807L76.8562 86.1993C76.8562 85.508 76.9797 84.9051 77.2267 84.3906C77.4737 83.8729 77.8263 83.4758 78.2845 83.1993C78.7459 82.9195 79.2789 82.7797 79.8833 82.7797C80.7672 82.7797 81.4529 82.9806 81.9404 83.3826C82.4311 83.7813 82.717 84.3777 82.7983 85.172H81.1507C81.0922 84.7797 80.9655 84.4999 80.7705 84.3327C80.5755 84.1655 80.2993 84.0819 79.9418 84.0819C79.5129 84.0819 79.1814 84.262 78.9474 84.6221C78.7134 84.9823 78.5948 85.4967 78.5916 86.1656V86.59C78.5916 87.291 78.7118 87.8183 78.9523 88.172C79.196 88.5225 79.5778 88.6977 80.0978 88.6977C80.543 88.6977 80.8745 88.5997 81.0922 88.4035V87.3135H79.9028V86.1511H82.8031V89.0354Z" fill="white"/>
<path d="M86.4346 87.4244H85.5085V89.9035H83.7975V82.8809H86.5906C87.4323 82.8809 88.0903 83.0658 88.5648 83.4356C89.0393 83.8054 89.2765 84.3279 89.2765 85.0032C89.2765 85.4919 89.1757 85.8971 88.9743 86.2186C88.776 86.5401 88.4641 86.8006 88.0384 87L89.5202 89.8312V89.9035H87.6874L86.4346 87.4244ZM85.5085 86.1173H86.5906C86.9156 86.1173 87.1593 86.0337 87.3218 85.8665C87.4875 85.6961 87.5704 85.4597 87.5704 85.1575C87.5704 84.8552 87.4875 84.6189 87.3218 84.4485C87.1561 84.2748 86.9123 84.188 86.5906 84.188H85.5085V86.1173Z" fill="white"/>
<path d="M94.7115 86.9276H92.0208V88.6013H95.199V89.9035H90.3099V82.8809H95.2087V84.188H92.0208V85.6688H94.7115V86.9276Z" fill="white"/>
<path d="M99.5568 88.0369C99.5568 87.7894 99.4674 87.5964 99.2887 87.4582C99.1132 87.3199 98.8029 87.1768 98.3577 87.0289C97.9125 86.881 97.5485 86.7379 97.2658 86.5996C96.3461 86.1527 95.8863 85.5385 95.8863 84.7572C95.8863 84.3681 96 84.0257 96.2275 83.7298C96.4582 83.4308 96.7832 83.1993 97.2024 83.0353C97.6216 82.8681 98.0928 82.7845 98.616 82.7845C99.1262 82.7845 99.5828 82.8745 99.9858 83.0546C100.392 83.2346 100.707 83.4919 100.931 83.8263C101.156 84.1575 101.268 84.5369 101.268 84.9646H99.5617C99.5617 84.6784 99.4723 84.4565 99.2936 84.299C99.1181 84.1414 98.8792 84.0626 98.577 84.0626C98.2716 84.0626 98.0295 84.1301 97.8507 84.2652C97.6752 84.397 97.5875 84.5658 97.5875 84.7716C97.5875 84.9517 97.685 85.1157 97.88 85.2636C98.075 85.4083 98.4178 85.5594 98.9085 85.717C99.3992 85.8713 99.8021 86.0385 100.117 86.2186C100.884 86.6559 101.268 87.2588 101.268 88.0273C101.268 88.6415 101.034 89.1238 100.566 89.4743C100.098 89.8248 99.4561 90 98.6404 90C98.0652 90 97.5436 89.8987 97.0757 89.6961C96.611 89.4903 96.26 89.2106 96.0228 88.8569C95.7888 88.5 95.6718 88.09 95.6718 87.627H97.3876C97.3876 88.0032 97.4851 88.2813 97.6801 88.4614C97.8783 88.6382 98.1984 88.7267 98.6404 88.7267C98.9231 88.7267 99.1457 88.6672 99.3082 88.5482C99.4739 88.426 99.5568 88.2556 99.5568 88.0369Z" fill="white"/>
<path d="M105.806 88.0369C105.806 87.7894 105.717 87.5964 105.538 87.4582C105.362 87.3199 105.052 87.1768 104.607 87.0289C104.162 86.881 103.798 86.7379 103.515 86.5996C102.595 86.1527 102.135 85.5385 102.135 84.7572C102.135 84.3681 102.249 84.0257 102.477 83.7298C102.707 83.4308 103.032 83.1993 103.452 83.0353C103.871 82.8681 104.342 82.7845 104.865 82.7845C105.375 82.7845 105.832 82.8745 106.235 83.0546C106.641 83.2346 106.956 83.4919 107.181 83.8263C107.405 84.1575 107.517 84.5369 107.517 84.9646H105.811C105.811 84.6784 105.721 84.4565 105.543 84.299C105.367 84.1414 105.128 84.0626 104.826 84.0626C104.521 84.0626 104.279 84.1301 104.1 84.2652C103.924 84.397 103.837 84.5658 103.837 84.7716C103.837 84.9517 103.934 85.1157 104.129 85.2636C104.324 85.4083 104.667 85.5594 105.158 85.717C105.648 85.8713 106.051 86.0385 106.366 86.2186C107.133 86.6559 107.517 87.2588 107.517 88.0273C107.517 88.6415 107.283 89.1238 106.815 89.4743C106.347 89.8248 105.705 90 104.89 90C104.314 90 103.793 89.8987 103.325 89.6961C102.86 89.4903 102.509 89.2106 102.272 88.8569C102.038 88.5 101.921 88.09 101.921 87.627H103.637C103.637 88.0032 103.734 88.2813 103.929 88.4614C104.127 88.6382 104.448 88.7267 104.89 88.7267C105.172 88.7267 105.395 88.6672 105.557 88.5482C105.723 88.426 105.806 88.2556 105.806 88.0369Z" fill="white"/>
<path d="M111.529 87.5064H108.599V86.2475H111.529V87.5064Z" fill="white"/>
<path d="M117.739 89.9035H112.786V88.8424L115.067 86.4694C115.63 85.836 115.911 85.3327 115.911 84.9597C115.911 84.6575 115.844 84.4276 115.711 84.27C115.578 84.1125 115.384 84.0337 115.131 84.0337C114.881 84.0337 114.677 84.1398 114.522 84.352C114.366 84.561 114.288 84.8231 114.288 85.1382H112.64C112.64 84.7073 112.749 84.3102 112.967 83.9469C113.184 83.5803 113.486 83.2941 113.873 83.0883C114.26 82.8825 114.692 82.7797 115.17 82.7797C115.937 82.7797 116.527 82.9549 116.939 83.3054C117.355 83.6559 117.563 84.1591 117.563 84.815C117.563 85.0916 117.511 85.3617 117.407 85.6253C117.303 85.8858 117.141 86.1607 116.92 86.4501C116.702 86.7363 116.349 87.1205 115.862 87.6029L114.946 88.6495H117.739V89.9035Z" fill="white"/>
<path d="M123.495 87.0337C123.495 87.9823 123.279 88.7138 122.847 89.2283C122.418 89.7428 121.812 90 121.029 90C120.239 90 119.628 89.7411 119.196 89.2235C118.764 88.7058 118.548 87.9759 118.548 87.0337V85.7507C118.548 84.8022 118.762 84.0707 119.191 83.5562C119.623 83.0417 120.233 82.7845 121.019 82.7845C121.806 82.7845 122.415 83.0433 122.847 83.561C123.279 84.0787 123.495 84.8102 123.495 85.7556V87.0337ZM121.853 85.5434C121.853 85.0385 121.786 84.6623 121.653 84.4147C121.52 84.1639 121.308 84.0385 121.019 84.0385C120.737 84.0385 120.53 84.1543 120.4 84.3858C120.273 84.6173 120.205 84.9678 120.195 85.4372V87.2315C120.195 87.7556 120.262 88.1398 120.395 88.3842C120.529 88.6254 120.74 88.746 121.029 88.746C121.308 88.746 121.515 88.6286 121.648 88.3939C121.781 88.1559 121.85 87.7845 121.853 87.2797V85.5434Z" fill="white"/>
<path d="M129.301 89.9035H124.349V88.8424L126.63 86.4694C127.192 85.836 127.473 85.3327 127.473 84.9597C127.473 84.6575 127.406 84.4276 127.273 84.27C127.14 84.1125 126.947 84.0337 126.693 84.0337C126.443 84.0337 126.24 84.1398 126.084 84.352C125.928 84.561 125.85 84.8231 125.85 85.1382H124.202C124.202 84.7073 124.311 84.3102 124.529 83.9469C124.747 83.5803 125.049 83.2941 125.436 83.0883C125.822 82.8825 126.254 82.7797 126.732 82.7797C127.499 82.7797 128.089 82.9549 128.502 83.3054C128.918 83.6559 129.126 84.1591 129.126 84.815C129.126 85.0916 129.074 85.3617 128.97 85.6253C128.866 85.8858 128.703 86.1607 128.482 86.4501C128.264 86.7363 127.912 87.1205 127.424 87.6029L126.508 88.6495H129.301V89.9035Z" fill="white"/>
<path d="M133.771 89.9035H132.123V84.7138L130.505 85.1816V83.9469L133.62 82.8809H133.771V89.9035Z" fill="white"/>
<path d="M3.23215 74.8387C2.45274 74.617 1.88476 74.3454 1.52819 74.0238C1.17478 73.6991 0.998072 73.2994 0.998072 72.8248C0.998072 72.2878 1.21422 71.8444 1.64652 71.4947C2.08198 71.1419 2.64681 70.9655 3.34101 70.9655C3.81433 70.9655 4.23559 71.0561 4.60478 71.2372C4.97712 71.4182 5.26427 71.668 5.46622 71.9865C5.67133 72.305 5.77388 72.6531 5.77388 73.0309H4.86037C4.86037 72.6188 4.72784 72.2956 4.46278 72.0614C4.19772 71.8241 3.8238 71.7055 3.34101 71.7055C2.89293 71.7055 2.54268 71.8038 2.29024 72.0005C2.04096 72.1941 1.91631 72.4642 1.91631 72.8108C1.91631 73.0887 2.03464 73.3244 2.27131 73.518C2.51112 73.7084 2.9166 73.8833 3.48774 74.0425C4.06204 74.2017 4.51011 74.3782 4.83197 74.5717C5.15699 74.7622 5.3968 74.9854 5.55142 75.2415C5.70919 75.4975 5.78808 75.7988 5.78808 76.1454C5.78808 76.698 5.57035 77.1414 5.1349 77.4754C4.69944 77.8064 4.11726 77.9719 3.38834 77.9719C2.91502 77.9719 2.47326 77.8829 2.06304 77.7049C1.65283 77.5238 1.33571 77.2772 1.11167 76.965C0.890786 76.6527 0.780344 76.2984 0.780344 75.9018H1.69385C1.69385 76.314 1.84689 76.6402 2.15298 76.8807C2.46221 77.118 2.874 77.2366 3.38834 77.2366C3.86797 77.2366 4.23559 77.1398 4.49118 76.9462C4.74677 76.7526 4.87457 76.4888 4.87457 76.1547C4.87457 75.8206 4.75624 75.5631 4.51958 75.382C4.28292 75.1978 3.85378 75.0167 3.23215 74.8387Z" fill="white"/>
<path d="M12.0265 75.7145C11.9413 76.4357 11.6715 76.9931 11.2171 77.3865C10.7658 77.7767 10.1647 77.9719 9.41372 77.9719C8.59961 77.9719 7.94642 77.6831 7.45417 77.1055C6.96507 76.5278 6.72052 75.7551 6.72052 74.7872V74.1315C6.72052 73.4977 6.83412 72.9403 7.06131 72.4595C7.29166 71.9787 7.61668 71.6103 8.03636 71.3542C8.45603 71.0951 8.94198 70.9655 9.49418 70.9655C10.2263 70.9655 10.8132 71.1685 11.2549 71.5744C11.6967 71.9771 11.9539 72.536 12.0265 73.251H11.1129C11.0341 72.7077 10.8621 72.3143 10.597 72.0708C10.3351 71.8273 9.96751 71.7055 9.49418 71.7055C8.91358 71.7055 8.45761 71.9178 8.12629 72.3424C7.79812 72.7671 7.63403 73.3712 7.63403 74.1549V74.8153C7.63403 75.5553 7.79023 76.1438 8.10262 76.5809C8.41501 77.018 8.85205 77.2366 9.41372 77.2366C9.9186 77.2366 10.3051 77.1242 10.5734 76.8994C10.8447 76.6715 11.0246 76.2765 11.1129 75.7145H12.0265Z" fill="white"/>
<path d="M14.2463 77.8782H13.3376V71.0592H14.2463V77.8782Z" fill="white"/>
<path d="M19.8079 74.7263H16.8212V77.1429H20.2906V77.8782H15.9124V71.0592H20.2433V71.7992H16.8212V73.991H19.8079V74.7263Z" fill="white"/>
<path d="M26.7183 77.8782H25.8048L22.3354 72.6234V77.8782H21.4219V71.0592H22.3354L25.8143 76.3374V71.0592H26.7183V77.8782Z" fill="white"/>
<path d="M33.4016 75.7145C33.3164 76.4357 33.0466 76.9931 32.5923 77.3865C32.141 77.7767 31.5399 77.9719 30.7889 77.9719C29.9748 77.9719 29.3216 77.6831 28.8293 77.1055C28.3403 76.5278 28.0957 75.7551 28.0957 74.7872V74.1315C28.0957 73.4977 28.2093 72.9403 28.4365 72.4595C28.6668 71.9787 28.9919 71.6103 29.4115 71.3542C29.8312 71.0951 30.3172 70.9655 30.8694 70.9655C31.6014 70.9655 32.1884 71.1685 32.6301 71.5744C33.0719 71.9771 33.3291 72.536 33.4016 73.251H32.4881C32.4092 72.7077 32.2373 72.3143 31.9722 72.0708C31.7103 71.8273 31.3427 71.7055 30.8694 71.7055C30.2888 71.7055 29.8328 71.9178 29.5015 72.3424C29.1733 72.7671 29.0092 73.3712 29.0092 74.1549V74.8153C29.0092 75.5553 29.1654 76.1438 29.4778 76.5809C29.7902 77.018 30.2272 77.2366 30.7889 77.2366C31.2938 77.2366 31.6803 77.1242 31.9485 76.8994C32.2199 76.6715 32.3998 76.2765 32.4881 75.7145H33.4016Z" fill="white"/>
<path d="M38.5419 74.7263H35.5552V77.1429H39.0247V77.8782H34.6465V71.0592H38.9774V71.7992H35.5552V73.991H38.5419V74.7263Z" fill="white"/>
<path d="M42.5983 78.4636H41.8457L44.7235 71.0592H45.4713L42.5983 78.4636Z" fill="white"/>
<path d="M49.8685 75.2087V77.8782H48.9597V71.0592H51.5014C52.2556 71.0592 52.8457 71.2496 53.2717 71.6306C53.7008 72.0115 53.9154 72.5157 53.9154 73.1433C53.9154 73.8052 53.7055 74.3157 53.2859 74.6748C52.8693 75.0307 52.2714 75.2087 51.492 75.2087H49.8685ZM49.8685 74.4734H51.5014C51.9874 74.4734 52.3597 74.361 52.6185 74.1362C52.8772 73.9083 53.0066 73.5804 53.0066 73.1527C53.0066 72.7468 52.8772 72.4221 52.6185 72.1785C52.3597 71.935 52.0047 71.8085 51.5535 71.7992H49.8685V74.4734Z" fill="white"/>
<path d="M57.6025 75.1197H55.9838V77.8782H55.0703V71.0592H57.3517C58.1279 71.0592 58.7243 71.234 59.1408 71.5837C59.5605 71.9334 59.7703 72.4423 59.7703 73.1105C59.7703 73.5351 59.6536 73.9051 59.4201 74.2205C59.1897 74.5358 58.8679 74.7716 58.4545 74.9277L60.0733 77.822V77.8782H59.0982L57.6025 75.1197ZM55.9838 74.3844H57.3801C57.8313 74.3844 58.1895 74.2689 58.4545 74.0378C58.7227 73.8068 58.8568 73.4977 58.8568 73.1105C58.8568 72.689 58.729 72.3659 58.4734 72.141C58.221 71.9162 57.855 71.8023 57.3753 71.7992H55.9838V74.3844Z" fill="white"/>
<path d="M64.8538 76.0985H61.9666L61.3181 77.8782H60.3809L63.0126 71.0592H63.8078L66.4442 77.8782H65.5117L64.8538 76.0985ZM62.2411 75.3586H64.584L63.4102 72.1691L62.2411 75.3586Z" fill="white"/>
<path d="M72.3844 75.7145C72.2992 76.4357 72.0294 76.9931 71.575 77.3865C71.1237 77.7767 70.5226 77.9719 69.7716 77.9719C68.9575 77.9719 68.3043 77.6831 67.8121 77.1055C67.323 76.5278 67.0784 75.7551 67.0784 74.7872V74.1315C67.0784 73.4977 67.192 72.9403 67.4192 72.4595C67.6496 71.9787 67.9746 71.6103 68.3943 71.3542C68.8139 71.0951 69.2999 70.9655 69.8521 70.9655C70.5842 70.9655 71.1711 71.1685 71.6128 71.5744C72.0546 71.9771 72.3118 72.536 72.3844 73.251H71.4708C71.392 72.7077 71.22 72.3143 70.9549 72.0708C70.693 71.8273 70.3254 71.7055 69.8521 71.7055C69.2715 71.7055 68.8155 71.9178 68.4842 72.3424C68.156 72.7671 67.9919 73.3712 67.9919 74.1549V74.8153C67.9919 75.5553 68.1481 76.1438 68.4605 76.5809C68.7729 77.018 69.2099 77.2366 69.7716 77.2366C70.2765 77.2366 70.663 77.1242 70.9313 76.8994C71.2026 76.6715 71.3825 76.2765 71.4708 75.7145H72.3844Z" fill="white"/>
<path d="M78.2488 71.7992H76.0337V77.8782H75.1296V71.7992H72.9192V71.0592H78.2488V71.7992Z" fill="white"/>
<path d="M80.2462 77.8782H79.3374V71.0592H80.2462V77.8782Z" fill="white"/>
<path d="M86.9816 75.7145C86.8964 76.4357 86.6266 76.9931 86.1722 77.3865C85.721 77.7767 85.1199 77.9719 84.3688 77.9719C83.5547 77.9719 82.9016 77.6831 82.4093 77.1055C81.9202 76.5278 81.6756 75.7551 81.6756 74.7872V74.1315C81.6756 73.4977 81.7892 72.9403 82.0164 72.4595C82.2468 71.9787 82.5718 71.6103 82.9915 71.3542C83.4112 71.0951 83.8971 70.9655 84.4493 70.9655C85.1814 70.9655 85.7683 71.1685 86.2101 71.5744C86.6518 71.9771 86.909 72.536 86.9816 73.251H86.0681C85.9892 72.7077 85.8172 72.3143 85.5521 72.0708C85.2902 71.8273 84.9226 71.7055 84.4493 71.7055C83.8687 71.7055 83.4127 71.9178 83.0814 72.3424C82.7532 72.7671 82.5892 73.3712 82.5892 74.1549V74.8153C82.5892 75.5553 82.7454 76.1438 83.0577 76.5809C83.3701 77.018 83.8072 77.2366 84.3688 77.2366C84.8737 77.2366 85.2603 77.1242 85.5285 76.8994C85.7999 76.6715 85.9797 76.2765 86.0681 75.7145H86.9816Z" fill="white"/>
<path d="M92.1218 74.7263H89.1352V77.1429H92.6046V77.8782H88.2264V71.0592H92.5573V71.7992H89.1352V73.991H92.1218V74.7263Z" fill="white"/>
<path d="M96.1782 78.4636H95.4256L98.3034 71.0592H99.0513L96.1782 78.4636Z" fill="white"/>
<path d="M100.135 77.8782V71.0592H102.388C103.136 71.0592 103.698 71.2122 104.073 71.5182C104.452 71.8241 104.641 72.2769 104.641 72.8763C104.641 73.1948 104.55 73.4774 104.367 73.724C104.184 73.9676 103.934 74.1565 103.619 74.2907C103.991 74.3938 104.285 74.5905 104.499 74.8808C104.717 75.1681 104.826 75.5115 104.826 75.9112C104.826 76.5232 104.625 77.004 104.225 77.3537C103.824 77.7034 103.258 77.8782 102.525 77.8782H100.135ZM101.044 74.6888V77.1429H102.544C102.967 77.1429 103.3 77.0352 103.543 76.8198C103.789 76.6012 103.912 76.3015 103.912 75.9206C103.912 75.0994 103.461 74.6888 102.559 74.6888H101.044ZM101.044 73.9676H102.417C102.814 73.9676 103.131 73.8692 103.368 73.6725C103.608 73.4758 103.728 73.2089 103.728 72.8717C103.728 72.497 103.617 72.2253 103.396 72.0567C103.175 71.885 102.839 71.7992 102.388 71.7992H101.044V73.9676Z" fill="white"/>
<path d="M110.07 74.7263H107.084V77.1429H110.553V77.8782H106.175V71.0592H110.506V71.7992H107.084V73.991H110.07V74.7263Z" fill="white"/>
<path d="M115.49 76.0985H112.602L111.954 77.8782H111.017L113.648 71.0592H114.444L117.08 77.8782H116.148L115.49 76.0985ZM112.877 75.3586H115.22L114.046 72.1691L112.877 75.3586Z" fill="white"/>
<path d="M122.774 71.0592V75.6958C122.771 76.3389 122.566 76.865 122.159 77.2741C121.755 77.6831 121.206 77.9126 120.512 77.9625L120.27 77.9719C119.516 77.9719 118.915 77.7705 118.467 77.3677C118.019 76.965 117.792 76.4108 117.785 75.7051V71.0592H118.685V75.677C118.685 76.1703 118.822 76.5544 119.096 76.8291C119.371 77.1008 119.762 77.2366 120.27 77.2366C120.785 77.2366 121.177 77.1008 121.449 76.8291C121.723 76.5575 121.861 76.175 121.861 75.6817V71.0592H122.774Z" fill="white"/>
<path d="M128.97 71.7992H126.755V77.8782H125.851V71.7992H123.64V71.0592H128.97V71.7992Z" fill="white"/>
<path d="M132.17 74.4827L133.968 71.0592H135L132.624 75.3351V77.8782H131.715V75.3351L129.339 71.0592H130.38L132.17 74.4827Z" fill="white"/>
<path d="M134.444 43.5202C134.444 37.7938 131.55 33.4991 127.21 30.6359C130.682 28.0591 132.708 24.3369 132.708 19.1832C132.708 9.16214 124.605 1.14527 114.478 1.14527H90.4607V61.8445H115.925C126.052 61.8445 134.444 53.8276 134.444 43.5202ZM116.214 42.3749C116.214 44.9518 114.188 46.6697 111.873 46.6697H108.401V37.7938H111.873C114.188 37.7938 116.214 39.7981 116.214 42.3749ZM115.056 20.3285C115.056 22.9054 113.031 24.9096 110.716 24.9096H108.401V16.0338H110.716C113.031 16.0338 115.056 18.038 115.056 20.3285Z" fill="white"/>
<path d="M29.4054 42.9475C29.4054 35.7896 26.5118 31.2086 24.4862 27.7727C23.0394 25.4822 21.882 23.478 21.882 21.4738C21.882 18.038 24.1969 15.7474 27.3799 15.7474C27.6692 15.7474 27.6692 15.7474 27.9586 16.0338V1.14527C26.5118 0.286317 23.9075 0 22.1713 0C8.86071 0 2.20539 8.30319 2.20539 19.7559C2.20539 25.1959 4.52029 29.2043 6.25646 32.9265C7.99263 35.5033 9.43944 38.0802 9.43944 40.9433C9.43944 44.3791 6.54582 47.2423 2.78412 47.2423C2.20539 47.2423 1.33731 47.2423 1.04795 46.956V62.1308C3.07348 62.4171 5.38837 62.9897 8.86071 62.9897C21.882 62.9897 29.4054 53.5413 29.4054 42.9475Z" fill="white"/>
<path d="M83.8054 24.9096C83.8054 11.739 73.099 1.14527 59.7884 1.14527H38.0862V61.8445H56.316V48.6739H59.7884C73.099 48.6739 83.8054 38.0802 83.8054 24.9096ZM66.4437 24.9096C66.4437 28.6317 63.5501 31.4949 59.7884 31.4949H56.316V18.3243H59.7884C63.5501 18.3243 66.4437 21.1875 66.4437 24.9096Z" fill="white"/>
</svg>
