<?xml version="1.0" encoding="UTF-8"?> <svg xmlns="http://www.w3.org/2000/svg" width="16" height="16" viewBox="0 0 16 16" fill="none"> <path d="M15.8029 14.0347L9.91035 8.14214L15.8029 2.24958C15.9657 2.0868 15.9657 1.82311 15.8029 1.66032L14.6244 0.481812C14.4616 0.31903 14.1979 0.31903 14.0351 0.481812L8.14258 6.37437L2.25002 0.481812C2.08724 0.31903 1.82355 0.31903 1.66077 0.481812L0.482254 1.66032C0.319472 1.82311 0.319473 2.0868 0.482255 2.24958L6.37481 8.14214L0.482254 14.0347C0.319473 14.1975 0.319473 14.4612 0.482255 14.6239L1.66077 15.8025C1.82355 15.9652 2.08724 15.9652 2.25002 15.8025L8.14258 9.9099L14.0351 15.8025C14.1979 15.9652 14.4616 15.9652 14.6244 15.8025L15.8029 14.6239C15.9657 14.4612 15.9657 14.1975 15.8029 14.0347Z" fill="#D32030"></path> </svg> 