<svg width="35" height="35" viewBox="0 0 35 35" fill="none" xmlns="http://www.w3.org/2000/svg">
<path d="M17.5002 34.9996C27.1648 34.9996 34.9995 27.1649 34.9995 17.5003C34.9995 7.8357 27.1648 0.000976562 17.5002 0.000976562C7.83566 0.000976562 0.000976562 7.8357 0.000976562 17.5003C0.000976562 27.1649 7.83566 34.9996 17.5002 34.9996Z" fill="white"/>
<path d="M33.9999 11.6651H23.2175C23.6859 15.4034 23.6887 19.5225 23.2266 23.2654H34.0228C34.6531 21.4597 34.9996 19.5206 34.9996 17.5001C34.9999 15.4531 34.6454 13.4902 33.9999 11.6651Z" fill="#2B479D"/>
<path d="M23.2175 11.6652H33.9996C33.9979 11.6596 33.9962 11.655 33.994 11.6499C31.7545 5.3348 25.9933 0.688536 19.0713 0.0717773C21.7502 1.54012 22.5327 6.19222 23.2175 11.6652Z" fill="#EFECEC"/>
<path d="M19.072 34.9275C26.0064 34.3096 31.7756 29.6473 34.0066 23.3152C34.0124 23.2984 34.0174 23.2818 34.0234 23.2655H23.227C22.5475 28.7681 21.7617 33.453 19.072 34.9275Z" fill="#E63026"/>
<path d="M0 17.5001C0 19.5208 0.347059 21.4597 0.976746 23.2654H24.1273C24.5899 19.5222 24.5865 15.4034 24.1187 11.6651H1.00002C0.354522 13.4903 0 15.4532 0 17.5001Z" fill="#3757A6"/>
<path d="M1.00554 11.65C1.00392 11.6549 1.00222 11.6597 1 11.6652H24.1188C23.4335 6.19219 21.7502 1.54016 19.0716 0.071821C18.5535 0.0259353 18.0296 8.42185e-10 17.4997 8.42185e-10C9.88692 -7.3889e-05 3.41308 4.86195 1.00554 11.65Z" fill="#EFEFEF"/>
<path d="M24.1274 23.2654H0.976807C0.982644 23.2818 0.988112 23.2983 0.993653 23.3152C3.39159 30.1206 9.87473 34.9998 17.4997 34.9998C18.0297 34.9998 18.5536 34.9738 19.0716 34.9274C21.7616 33.453 23.4479 28.7681 24.1274 23.2654Z" fill="#E73B36"/>
</svg>
