<svg width="20" height="19" viewBox="0 0 20 19" fill="none" xmlns="http://www.w3.org/2000/svg">
<path d="M13.2608 10.1477H0.652172C0.292172 10.1477 0 9.85754 0 9.5C0 9.14246 0.292172 8.85228 0.652172 8.85228H13.2608C13.6208 8.85228 13.913 9.14246 13.913 9.5C13.913 9.85754 13.6208 10.1477 13.2608 10.1477Z" fill="#686868"/>
<path d="M9.78258 13.6022C9.61556 13.6022 9.44869 13.5393 9.32164 13.4123C9.06688 13.1593 9.06688 12.7491 9.32164 12.4959L12.339 9.49921L9.32164 6.50238C9.06688 6.24936 9.06688 5.839 9.32164 5.58598C9.57655 5.33297 9.98957 5.33297 10.2443 5.58598L13.7225 9.04062C13.9773 9.29363 13.9773 9.70384 13.7225 9.95685L10.2443 13.4113C10.1165 13.5393 9.94961 13.6022 9.78258 13.6022Z" fill="#686868"/>
<path d="M10.4348 19C6.4773 19 2.9835 16.6354 1.53219 12.9752C1.40004 12.6436 1.56515 12.2671 1.89999 12.1358C2.23388 12.0063 2.61394 12.1677 2.7461 12.502C3.99917 15.6621 7.01738 17.7046 10.4348 17.7046C14.9895 17.7046 18.6957 14.0236 18.6957 9.5C18.6957 4.97637 14.9895 1.29545 10.4348 1.29545C7.01738 1.29545 3.99917 3.33793 2.7461 6.49795C2.61299 6.83225 2.23388 6.99371 1.89999 6.86419C1.56515 6.73294 1.40004 6.35642 1.53219 6.02481C2.9835 2.3646 6.4773 0 10.4348 0C15.7087 0 20 4.26207 20 9.5C20 14.7379 15.7087 19 10.4348 19Z" fill="#686868"/>
</svg>
