<svg width="140" height="140" viewBox="0 0 140 140" fill="none" xmlns="http://www.w3.org/2000/svg">
<path d="M65.0755 95.1509C63.4926 95.1509 62.0855 94.4473 61.2061 93.3922L34.6483 64.5479C32.7136 62.4374 32.8896 59.0956 35.0001 57.1609C37.1105 55.2262 40.4523 55.4023 42.387 57.5127L65.2513 82.3116L128.568 19.1709C130.678 17.0605 134.02 17.0605 135.955 19.1709C137.89 21.2813 138.065 24.6232 135.955 26.5579L68.7692 93.568C67.8895 94.6234 66.4827 95.1509 65.0755 95.1509Z" fill="#013066"/>
<path d="M70.0002 140C31.4823 140 0 108.518 0 70.0002C0 31.4827 31.4823 0 70.0002 0C72.9902 0 75.2764 2.28649 75.2764 5.27623C75.2764 8.26597 72.9899 10.5525 70.0002 10.5525C37.2864 10.5525 10.5528 37.2861 10.5528 69.9998C10.5528 102.714 37.2864 129.447 70.0002 129.447C102.714 129.447 129.448 102.714 129.448 69.9998C129.448 67.0098 131.734 64.7236 134.724 64.7236C137.714 64.7236 140 67.0101 140 69.9998C140 108.518 108.518 140 70.0002 140Z" fill="#FFCC40"/>
</svg>
