<svg width="15" height="15" viewBox="0 0 15 15" fill="none" xmlns="http://www.w3.org/2000/svg">
<path d="M14.1925 12.6363L9.00536 7.44912L14.1925 2.26199C14.3358 2.11869 14.3358 1.88657 14.1925 1.74328L13.1551 0.705849C13.0118 0.562554 12.7796 0.562554 12.6364 0.705849L7.44922 5.89298L2.26208 0.705849C2.11879 0.562554 1.88666 0.562554 1.74337 0.705849L0.705943 1.74328C0.562648 1.88657 0.562648 2.11869 0.705943 2.26199L5.89308 7.44912L0.705943 12.6363C0.562648 12.7796 0.562649 13.0117 0.705944 13.155L1.74337 14.1924C1.88666 14.3357 2.11879 14.3357 2.26208 14.1924L7.44922 9.00527L12.6364 14.1924C12.7796 14.3357 13.0118 14.3357 13.1551 14.1924L14.1925 13.155C14.3358 13.0117 14.3358 12.7796 14.1925 12.6363Z" fill="#8D8D8D"/>
</svg>
