<svg width="75" height="77" viewBox="0 0 75 77" fill="none" xmlns="http://www.w3.org/2000/svg">
<path d="M60.2461 38.115H46.7215V57.7876H60.2461C60.572 57.7872 60.8846 57.6576 61.1151 57.4271C61.3456 57.1966 61.4752 56.884 61.4756 56.558V39.3445C61.4752 39.0185 61.3456 38.7059 61.1151 38.4754C60.8846 38.2449 60.572 38.1153 60.2461 38.115ZM57.787 54.0989H50.41C50.0839 54.0989 49.7712 53.9694 49.5406 53.7388C49.31 53.5082 49.1805 53.1955 49.1805 52.8694C49.1805 52.5433 49.31 52.2306 49.5406 52C49.7712 51.7694 50.0839 51.6399 50.41 51.6399H57.787C58.1131 51.6399 58.4259 51.7694 58.6564 52C58.887 52.2306 59.0165 52.5433 59.0165 52.8694C59.0165 53.1955 58.887 53.5082 58.6564 53.7388C58.4259 53.9694 58.1131 54.0989 57.787 54.0989ZM56.5575 49.1808H50.41C50.0839 49.1808 49.7712 49.0512 49.5406 48.8207C49.31 48.5901 49.1805 48.2773 49.1805 47.9513C49.1805 47.6252 49.31 47.3124 49.5406 47.0818C49.7712 46.8513 50.0839 46.7217 50.41 46.7217H56.5575C56.8836 46.7217 57.1963 46.8513 57.4269 47.0818C57.6575 47.3124 57.787 47.6252 57.787 47.9513C57.787 48.2773 57.6575 48.5901 57.4269 48.8207C57.1963 49.0512 56.8836 49.1808 56.5575 49.1808ZM57.787 44.2626H50.41C50.0839 44.2626 49.7712 44.1331 49.5406 43.9025C49.31 43.6719 49.1805 43.3592 49.1805 43.0331C49.1805 42.707 49.31 42.3943 49.5406 42.1637C49.7712 41.9331 50.0839 41.8036 50.41 41.8036H57.787C58.1131 41.8036 58.4259 41.9331 58.6564 42.1637C58.887 42.3943 59.0165 42.707 59.0165 43.0331C59.0165 43.3592 58.887 43.6719 58.6564 43.9025C58.4259 44.1331 58.1131 44.2626 57.787 44.2626Z" fill="#FFCC40"/>
<path d="M44.2624 38.115H43.0329C42.7069 38.1153 42.3944 38.2449 42.1639 38.4754C41.9334 38.7059 41.8037 39.0185 41.8034 39.3445V56.558C41.8037 56.884 41.9334 57.1966 42.1639 57.4271C42.3944 57.6576 42.7069 57.7872 43.0329 57.7876H44.2624V38.115Z" fill="#FFCC40"/>
<path d="M71.3116 27.0491H31.9673C30.9894 27.0502 30.0518 27.4391 29.3603 28.1307C28.6688 28.8222 28.2799 29.7598 28.2788 30.7377V65.1648C28.2799 66.1427 28.6688 67.0803 29.3603 67.7718C30.0518 68.4634 30.9894 68.8523 31.9673 68.8534H54.8189L61.8357 75.8704C62.0078 76.042 62.2268 76.1588 62.4652 76.2061C62.7036 76.2534 62.9506 76.229 63.1751 76.136C63.3997 76.043 63.5916 75.8856 63.7268 75.6836C63.8619 75.4816 63.9342 75.2441 63.9345 75.0011V68.8534H71.3116C72.2895 68.8523 73.2271 68.4634 73.9186 67.7718C74.6101 67.0803 74.999 66.1427 75.0001 65.1648V30.7377C74.999 29.7598 74.6101 28.8222 73.9186 28.1307C73.2271 27.4392 72.2896 27.0502 71.3116 27.0491ZM63.9346 56.558C63.9335 57.536 63.5446 58.4736 62.8531 59.1651C62.1616 59.8566 61.224 60.2456 60.2461 60.2466H43.0329C42.055 60.2456 41.1174 59.8566 40.4259 59.1651C39.7344 58.4736 39.3455 57.536 39.3444 56.558V39.3445C39.3455 38.3665 39.7344 37.4289 40.4259 36.7374C41.1174 36.0459 42.055 35.6569 43.0329 35.6559H60.2461C61.224 35.6569 62.1616 36.0459 62.8531 36.7374C63.5446 37.4289 63.9335 38.3665 63.9346 39.3445V56.558Z" fill="#FFCC40"/>
<path d="M57.7869 0H3.68853C2.7106 0.00106748 1.77303 0.390031 1.08152 1.08155C0.390022 1.77307 0.00106745 2.71066 0 3.68861V43.0338C0.00106745 44.0118 0.390022 44.9494 1.08152 45.6409C1.77303 46.3324 2.7106 46.7214 3.68853 46.7224C3.55338 46.5205 3.68886 46.9654 3.68853 46.7224C3.46401 46.6294 3.82368 46.9244 3.68853 46.7224C3.45016 46.7697 3.91304 46.8154 3.68853 46.7224C3.51647 46.894 3.9269 46.6752 3.68853 46.7224H57.7869C58.7649 46.7214 59.7024 46.3324 60.394 45.6409C61.0855 44.9494 61.4744 44.0118 61.4755 43.0338V3.68861C61.4744 2.71066 61.0855 1.77307 60.394 1.08155C59.7024 0.390031 58.7649 0.00106748 57.7869 0ZM59.0165 43.0338C59.0161 43.3598 58.8865 43.6723 58.656 43.9029C58.4255 44.1334 58.1129 44.263 57.7869 44.2633H3.68853C3.83768 44.2015 3.52707 44.2633 3.68853 44.2633C3.80264 44.1491 3.53937 44.3252 3.68853 44.2633C3.7503 44.4125 3.68857 44.1019 3.68853 44.2633C3.80271 44.3775 3.62675 44.1142 3.68853 44.2633C3.83772 44.3251 3.57435 44.1492 3.68853 44.2633C3.85 44.2633 3.53934 44.2016 3.68853 44.2633C3.36254 44.263 3.05 44.1334 2.81949 43.9029C2.58899 43.6723 2.45934 43.3598 2.45902 43.0338V3.68861C2.45934 3.36262 2.58899 3.05007 2.81949 2.81956C3.05 2.58905 3.36254 2.4594 3.68853 2.45907H57.7869C58.1129 2.4594 58.4255 2.58905 58.656 2.81956C58.8865 3.05007 59.0161 3.36262 59.0165 3.68861V43.0338Z" fill="#013066"/>
<path d="M35.5513 23.1151C37.0792 22.0842 38.2358 20.5901 38.8509 18.8526C39.466 17.1151 39.5071 15.226 38.9681 13.4634C38.4291 11.7008 37.3386 10.1578 35.8569 9.06152C34.3753 7.96521 32.5809 7.37351 30.7377 7.37351C28.8946 7.37351 27.1002 7.96521 25.6185 9.06152C24.1369 10.1578 23.0464 11.7008 22.5074 13.4634C21.9684 15.226 22.0095 17.1151 22.6246 18.8526C23.2397 20.5901 24.3963 22.0842 25.9242 23.1151C23.7067 24.0611 21.8156 25.6372 20.4857 27.6481C19.1557 29.659 18.4453 32.0161 18.4426 34.427V38.1157C18.4426 38.4418 18.5722 38.7545 18.8028 38.9851C19.0333 39.2157 19.3461 39.3452 19.6722 39.3452C19.9982 39.3452 20.311 39.2157 20.5415 38.9851C20.7721 38.7545 20.9017 38.4418 20.9017 38.1157V34.427C20.9018 33.1062 21.1689 31.799 21.6869 30.584C22.2049 29.369 22.9632 28.2713 23.9161 27.3567C24.7157 28.4078 25.7475 29.26 26.9308 29.8466C28.1141 30.4332 29.417 30.7384 30.7378 30.7384C32.0585 30.7384 33.3614 30.4332 34.5447 29.8466C35.728 29.26 36.7598 28.4079 37.5595 27.3568C38.5124 28.2713 39.2706 29.3691 39.7886 30.5841C40.3066 31.7991 40.5737 33.1062 40.5738 34.427V38.1157C40.5738 38.4418 40.7034 38.7545 40.9339 38.9851C41.1645 39.2157 41.4772 39.3452 41.8033 39.3452C42.1294 39.3452 42.4421 39.2157 42.6727 38.9851C42.9033 38.7545 43.0328 38.4418 43.0328 38.1157V34.427C43.0302 32.0161 42.3198 29.659 40.9898 27.6481C39.6598 25.6372 37.7688 24.061 35.5513 23.1151ZM36.7072 14.5764C35.5988 14.3131 34.5854 13.7472 33.7799 12.9417C32.9744 12.1362 32.4085 11.1227 32.1453 10.0144C33.2536 10.2776 34.267 10.8435 35.0725 11.6491C35.878 12.4546 36.4439 13.468 36.7072 14.5764ZM29.3301 10.0144C29.0669 11.1227 28.5009 12.1362 27.6954 12.9417C26.8899 13.7472 25.8765 14.3131 24.7682 14.5764C25.0315 13.468 25.5974 12.4546 26.4029 11.6491C27.2084 10.8435 28.2218 10.2776 29.3301 10.0144ZM24.7028 17.0981C25.9458 16.9002 27.1304 16.4322 28.1731 15.7271C29.2157 15.0219 30.0912 14.0968 30.7377 13.0169C31.3843 14.0968 32.2598 15.0219 33.3024 15.727C34.3451 16.4322 35.5296 16.9002 36.7726 17.0981C36.5149 18.5108 35.7697 19.7883 34.667 20.7081C33.5642 21.6279 32.1737 22.1317 30.7377 22.1317C29.3017 22.1317 27.9113 21.6279 26.8085 20.7081C25.7057 19.7883 24.9605 18.5108 24.7028 17.0981ZM30.7377 28.2794C29.7987 28.2796 28.8722 28.0637 28.0301 27.6484C27.1879 27.2331 26.4526 26.6294 25.8812 25.8843C27.3594 25.0367 29.0337 24.5907 30.7377 24.5907C32.4417 24.5907 34.1161 25.0367 35.5943 25.8843C35.0228 26.6293 34.2875 27.2329 33.4453 27.6482C32.6032 28.0635 31.6767 28.2795 30.7377 28.2794Z" fill="#013066"/>
</svg>
