<?xml version="1.0"?>
<svg xmlns="http://www.w3.org/2000/svg" xmlns:xlink="http://www.w3.org/1999/xlink" xmlns:svgjs="http://svgjs.com/svgjs" version="1.1" width="512" height="512" x="0" y="0" viewBox="0 0 512 512" style="enable-background:new 0 0 512 512" xml:space="preserve" class=""><g><path xmlns="http://www.w3.org/2000/svg" d="m256 6c-138.071 0-250 111.929-250 250s111.929 250 250 250 250-111.929 250-250-111.929-250-250-250zm193.736 160.612c0 5.853-2.966 15.151-10.372 27.014-12.637 20.245-35 45.542-46.327 62.13-10.277 16.173-7.949 18.721 9.334 36.807 30.061 29 48.4 47.2 48.4 59.092 0 17.162-75.094 13.485-80.208 12.493-23.741-4.6-41.525-34.723-48.056-39.506-16.131-17.386-25.449-10.924-30.078 0-3.962 9.95-3.467 31.859-6.914 34.1-1.614 2.476-12.423 4.84-32.5 5.4-13.991.393-66.465.894-117.892-66.52-31.179-41.303-79.869-128.305-73.292-134.722 2.555-7.988 70.831-6.97 77.1-2.363 1.954 1.436 4.263 5.74 7.26 12.493q15.9 35.793 34.918 62.806c1.514 1.913 25.275 39.284 31.462 3.04 3.62-17.093 2.58-55.2-3.112-64.833q-3.8-6.753-19.361-11.143c6.948-20.877 87.423-20.02 96.113-5.4 9.078 12.1-.233 60.174 2.419 77.664 3.18 20.965 10.563 23.292 22.818 10.467 32.731-34.25 45.173-83.88 52.9-86.78 1.455-.569 69.353-1.351 69.491-1.351 18.514 0 15.897 8.659 15.897 9.112z" fill="#f9f9f9" data-original="#000000" style=""/></g></svg>
