<svg width="26" height="16" viewBox="0 0 26 16" fill="none" xmlns="http://www.w3.org/2000/svg">
<path d="M24.6724 16H1.3278C0.595665 16 0 15.3736 0 14.6034V1.39667C0 0.626543 0.595665 0 1.3278 0H24.6724C25.4042 0 26 0.626543 26 1.39667V14.6034C26 15.3736 25.4042 16 24.6724 16ZM1.3278 1.1282C1.18698 1.1282 1.07221 1.24862 1.07221 1.39667V14.6034C1.07221 14.7514 1.18698 14.8719 1.3278 14.8719H24.6724C24.8131 14.8719 24.9277 14.7514 24.9277 14.6034V1.39667C24.9277 1.24862 24.8132 1.1282 24.6724 1.1282H1.3278Z" fill="black"/>
<path d="M10.2244 12.2869C10.0483 12.1855 9.9338 11.9967 9.9338 11.7856V4.21447C9.9338 4.00334 10.046 3.81001 10.2244 3.71315C10.4027 3.61634 10.6172 3.63248 10.7808 3.75485L15.8406 7.54041C15.9821 7.64625 16.066 7.81753 16.066 8.00008C16.066 8.18269 15.9821 8.35397 15.8406 8.45982C15.8406 8.45982 12.0455 11.2988 10.7808 12.2453C10.6883 12.3144 10.4891 12.4393 10.2244 12.2869ZM11.0062 5.30778V10.6923L14.6047 8.00008L11.0062 5.30778Z" fill="black"/>
</svg>
