<svg width="26" height="20" viewBox="0 0 26 20" fill="none" xmlns="http://www.w3.org/2000/svg">
<path d="M24.6724 14.546H1.3278C0.595665 14.546 0 13.9765 0 13.2763V1.26976C0 0.569613 0.595665 7.62939e-06 1.3278 7.62939e-06H24.6724C25.4042 7.62939e-06 26 0.569613 26 1.26976V13.2763C26 13.9765 25.4042 14.546 24.6724 14.546ZM1.3278 1.02568C1.18698 1.02568 1.07221 1.13516 1.07221 1.26976V13.2763C1.07221 13.4109 1.18698 13.5204 1.3278 13.5204H24.6724C24.8131 13.5204 24.9277 13.4109 24.9277 13.2763V1.26976C24.9277 1.13516 24.8132 1.02568 24.6724 1.02568H1.3278Z" fill="#013066"/>
<path d="M10.2244 11.1703C10.0483 11.0782 9.9338 10.9065 9.9338 10.7146V3.83149C9.9338 3.63954 10.046 3.46378 10.2244 3.37572C10.4027 3.28771 10.6172 3.30238 10.7808 3.41363L15.8406 6.85517C15.9821 6.9514 16.066 7.10711 16.066 7.27308C16.066 7.43909 15.9821 7.5948 15.8406 7.69103C15.8406 7.69103 12.0455 10.272 10.7808 11.1325C10.6883 11.1954 10.4891 11.3089 10.2244 11.1703ZM11.0062 4.82544V9.72066L14.6047 7.27308L11.0062 4.82544Z" fill="#013066"/>
<path d="M25.4639 17.457H15.2162C14.9782 16.5851 14.1477 15.9398 13.1626 15.9398C12.1777 15.9398 11.3474 16.5851 11.1093 17.457H0.536131C0.240102 17.457 0 17.6867 0 17.9699C0 18.2531 0.240102 18.4827 0.536131 18.4827H11.1094C11.3474 19.3546 12.1778 20 13.1627 20C14.1478 20 14.9783 19.3546 15.2163 18.4827H25.4639C25.7597 18.4827 26 18.2532 26 17.9699C26 17.6867 25.7597 17.457 25.4639 17.457ZM13.1626 18.9743C12.5838 18.9743 12.1127 18.5237 12.1127 17.9698C12.1127 17.416 12.5838 16.9655 13.1626 16.9655C13.7417 16.9655 14.2128 17.416 14.2128 17.9698C14.2128 18.5237 13.7417 18.9743 13.1626 18.9743Z" fill="#013066"/>
</svg>
